<?xml version="1.0" encoding="utf-8"?>
<!-- Generator: Adobe Illustrator 22.0.0, SVG Export Plug-In . SVG Version: 6.00 Build 0)  -->
<svg version="1.1" id="Layer_1" xmlns="http://www.w3.org/2000/svg" xmlns:xlink="http://www.w3.org/1999/xlink" x="0px" y="0px"
	 viewBox="0 0 196 176" style="enable-background:new 0 0 196 176;" xml:space="preserve">
<style type="text/css">
	.st0{fill:#BEDEB4;stroke:#000000;stroke-miterlimit:10;}
	.st1{fill:#5B8163;}
	.st2{fill:#FFFFFF;}
	.st3{fill:#809F92;}
	.st4{fill:#BEDEB4;}
</style>
<g id="Layer_1_1_">
</g>
<g id="art">
	<g>
		<g>
			<path class="st0" d="M85.9,88.9c0,0-4.4-1.5-12.6,0.5c-5.1,1.2-9.7,0.4-10.8-0.3c-1.1-0.7,1.7,6.7,3.6,7.9c1.9,1.1,4,7.6,3.8,8
				c-0.3,0.5,5.9,3.3,7.3,4.1c1.4,0.9,1.9-0.6,3.9,0.6c2,1.2,2.7,2.1,3.9,1.8s11.7,0.6,15.4,0.7c3.6,0.1,6.6-0.3,9.6-2.3
				s4.1-4.5,5-4.7c1-0.2,1-1.9,1-1.9s3.3-1.6,6.3-1.7s7.1-0.9,8.8-1.3c1.7-0.4,6.5,1.4,6.5,1.4s1,1.4,1.5,0.7
				c0.4-0.7,1.2-3.6,0.8-5.2c-0.4-1.6-3.1-4.8-3.6-6.7c-0.5-1.9-2.9-8.1-3.3-9.9s-1.7-3.1-1.9-3.9s0.4-1.5-1.2-0.5
				c-1.6,1-3.5,1.5-4.8,1.8s-5,1.3-7.5,2.5c-2.5,1.3-7.8,1.9-9.6,2.3s-3.3,0.7-3.1,1.4c0.2,0.7-1.8,1.4-2.8,1.7
				C101,86.2,89.1,89.5,85.9,88.9z"/>
			<g>
				<path class="st1" d="M105.9,111.2c-4.2,1-9.2,0.1-9.9,0c-4-0.3-10-0.7-10.7-0.7l0,0c-1.1,0.3-1.7-0.5-2.2-1.2
					c-0.2-0.2-0.3-0.5-0.6-0.8c-0.2-0.2-0.3-0.3-0.3-0.4c-0.3,0.1-0.6,0.1-1.1-0.1c-0.2,0-0.6,0-0.9,0.1c-0.7,0.1-1.5,0.2-2.3,0.1
					c-1.4-0.2-6.1-2.8-7.5-3.6l1-1.7c2.7,1.5,6,3.3,6.7,3.4c0.5,0.1,1.2,0,1.8-0.1c0.8-0.1,1.4-0.2,2,0c0.8-0.1,1.5,0.2,2.2,1.1
					c0.3,0.4,0.5,0.7,0.7,0.9c0.1,0.1,0.2,0.3,0.3,0.4c1.2-0.1,6.7,0.3,11.2,0.7h0.1c2.5,0.5,9.7,1.3,12.4-1.7c2.8-3,3.9-4.5,4.3-5
					c0.1-1.1,0.8-2.8,3.1-3.4c2.5-0.6,8.6-1.9,11.6-2.2c2.9-0.3,6.5,0.1,7.7,0.8c0.2,0.1,0.4,0.2,0.4,0.2s0-0.1,0.1-0.1
					c0.7-1.1,1.9-1.3,2-1.3l0.3,2l0,0c-0.1,0-0.4,0.1-0.5,0.3c-0.7,1.2-1.8,1.4-3.3,0.5c-0.6-0.4-3.6-0.9-6.5-0.6
					c-2.8,0.3-8.9,1.6-11.3,2.2c-1.6,0.4-1.6,1.7-1.6,1.7v0.3l-0.2,0.3c0,0.1-1,1.5-4.7,5.5C109.1,110.1,107.6,110.8,105.9,111.2z
					 M81.2,108L81.2,108L81.2,108z M81,107.9L81,107.9L81,107.9z"/>
				<g>
					<path d="M105.9,111.4c-1.6,0.4-3.3,0.5-5,0.5s-3.3-0.2-5-0.5l0,0l-5.4-0.4l-2.7-0.2c-0.9,0-1.8-0.1-2.6-0.1l0,0
						c-0.4,0.1-0.8,0.1-1.2-0.1c-0.4-0.2-0.7-0.5-0.9-0.7c-0.2-0.3-0.4-0.6-0.6-0.9c-0.2-0.3-0.4-0.6-0.6-0.8l0.2,0.1
						c-0.4,0.1-0.8,0-1.2-0.2H81c-0.9,0.1-1.9,0.3-2.9,0.2c-1.1-0.1-1.9-0.6-2.8-1c-1.7-0.8-3.4-1.8-5.1-2.7
						c-0.1-0.1-0.1-0.2-0.1-0.3l0,0l1-1.7c0.1-0.1,0.2-0.1,0.3-0.1c1.6,0.9,3.3,1.8,5,2.7c0.4,0.2,0.8,0.4,1.3,0.6
						c0.4,0.2,0.8,0.2,1.3,0.1c0.5,0,0.9-0.1,1.4-0.2c0.5,0,1-0.1,1.5,0.1h-0.1c0.4-0.1,0.8,0,1.1,0.1c0.4,0.2,0.6,0.4,0.9,0.7
						c0.5,0.5,0.9,1.2,1.3,1.7l-0.2-0.1c2.6,0,5.2,0.2,7.8,0.4c1.3,0.1,2.6,0.2,3.9,0.3c1.3,0.2,2.5,0.4,3.8,0.4
						c1.3,0.1,2.6,0,3.8-0.2c1.3-0.2,2.5-0.5,3.6-1.2c0.5-0.3,1-0.8,1.4-1.3l1.3-1.4c0.8-1,1.7-2,2.5-3v0.1c0.1-1.1,0.6-2.1,1.5-2.7
						c0.9-0.7,2-0.8,3-1.1c2-0.5,4.1-0.9,6.1-1.3c2.1-0.4,4.1-0.8,6.2-0.8c1.1,0,2.1,0.1,3.1,0.2c0.5,0.1,1,0.2,1.6,0.3
						c0.5,0.1,1,0.4,1.4,0.6l-0.2,0.1c0.1-0.2,0.2-0.4,0.4-0.5c0.2-0.2,0.3-0.3,0.5-0.4c0.4-0.3,0.8-0.4,1.3-0.5
						c0.1,0,0.2,0.1,0.2,0.2l0,0l0,0l0.3,2l-0.1-0.2c0,0.8-0.1,0.2-0.1,0.4l0,0l0,0l0,0l0,0h-0.1c0,0-0.1,0-0.1,0.1
						c-0.1,0.1-0.1,0.1-0.2,0.2c-0.2,0.2-0.3,0.5-0.6,0.6c-0.5,0.4-1.1,0.5-1.7,0.4c-0.3-0.1-0.5-0.2-0.8-0.3s-0.5-0.3-0.7-0.3
						c-0.5-0.2-1-0.3-1.5-0.3c-2.1-0.3-4.2-0.2-6.2,0.1c-2.1,0.3-4.2,0.7-6.2,1.2c-1,0.2-2.1,0.4-3.1,0.7c-0.5,0.1-1,0.3-1.3,0.6
						s-0.5,0.8-0.4,1.3v0.1l0,0c-0.6,0.9-1.3,1.7-1.9,2.5c-0.7,0.8-1.4,1.6-2.1,2.4c-0.4,0.4-0.7,0.8-1.1,1.2
						c-0.4,0.4-0.8,0.7-1.3,1C108,110.7,107,111.1,105.9,111.4L105.9,111.4z M105.9,111.1c1-0.2,2-0.6,2.9-1.2
						c0.4-0.3,0.8-0.6,1.2-0.9c0.4-0.4,0.7-0.8,1.1-1.2c0.7-0.8,1.4-1.6,2.1-2.4c0.7-0.8,1.3-1.6,1.9-2.5v0.1
						c-0.1-0.5,0.1-1.2,0.5-1.6c0.4-0.4,1-0.6,1.5-0.7c1-0.2,2.1-0.5,3.1-0.7c2.1-0.4,4.1-0.9,6.2-1.2c2.1-0.4,4.3-0.5,6.4-0.1
						c0.5,0.1,1.1,0.2,1.6,0.4c0.3,0.1,0.5,0.3,0.7,0.4c0.2,0.1,0.5,0.2,0.7,0.2c0.5,0.1,0.9,0,1.3-0.3c0.2-0.1,0.3-0.3,0.5-0.5
						c0.1-0.1,0.2-0.3,0.3-0.4c0.1,0,0.1-0.1,0.2-0.1h0.1h0.1l0,0l0,0l0,0c0,0.2,0-0.4-0.1,0.4l0,0l0,0v-0.2l-0.2-2l0.2,0.2
						c-0.4,0.1-0.8,0.2-1.1,0.4c-0.2,0.1-0.3,0.2-0.5,0.4c-0.1,0.2-0.2,0.3-0.4,0.5l0,0c0,0.1-0.1,0.1-0.2,0.1
						c-0.5-0.3-0.9-0.5-1.4-0.6s-1-0.2-1.5-0.3c-1-0.2-2.1-0.2-3.1-0.2c-2.1,0-4.1,0.4-6.2,0.7c-2.1,0.4-4.1,0.8-6.1,1.2
						c-1,0.2-2.1,0.4-2.9,1c-0.8,0.6-1.3,1.6-1.4,2.6c0,0,0,0,0,0.1c-0.8,1-1.6,2-2.5,3l-1.3,1.4c-0.4,0.5-0.9,1-1.4,1.3
						c-1.1,0.7-2.4,1.1-3.7,1.3s-2.6,0.2-3.9,0.2c-1.3-0.1-2.6-0.2-3.9-0.4c-1.3-0.2-2.6-0.2-3.8-0.3c-2.6-0.2-5.2-0.4-7.7-0.4l0,0
						c-0.1,0-0.1,0-0.1-0.1c-0.4-0.6-0.8-1.2-1.3-1.7c-0.2-0.2-0.5-0.5-0.8-0.6s-0.6-0.2-0.9-0.1H82l0,0c-0.8-0.3-1.8,0-2.7,0.1
						c-0.5,0-1,0.1-1.5-0.2c-0.5-0.2-0.9-0.4-1.3-0.6c-1.7-0.8-3.4-1.7-5-2.7l0.3-0.1l-1,1.7l-0.1-0.3c1.7,0.9,3.4,1.9,5.1,2.7
						c0.9,0.4,1.7,0.9,2.6,0.9c0.9,0.1,1.8-0.1,2.9-0.2h0.1l0,0c0.3,0.1,0.6,0.2,0.9,0.1l0,0c0.1,0,0.1,0,0.2,0.1
						c0.3,0.3,0.5,0.6,0.7,0.9c0.2,0.3,0.4,0.6,0.6,0.9c0.2,0.3,0.4,0.5,0.7,0.6s0.6,0.1,0.9,0l0,0l0,0c1,0,1.8,0.1,2.7,0.1l2.7,0.2
						l5.4,0.4l0,0c1.6,0.3,3.3,0.5,4.9,0.5C102.6,111.6,104.3,111.5,105.9,111.1L105.9,111.1z"/>
				</g>
			</g>
			<g>
				<path class="st1" d="M97.8,90.5c-3.9,1-8.4,1.7-9.5,1.8c-1.2,0.1-2.9,0-4.7-0.2c-1.7-0.1-3.4-0.2-4.9-0.2
					c-2.6,0-5.5,0.8-7.7,1.3c-0.4,0.1-0.8,0.2-1.2,0.3c-2.6,0.6-5.2-0.3-5.3-0.3l0.7-1.9c0,0,2.2,0.7,4.1,0.2
					c0.4-0.1,0.7-0.2,1.2-0.3c2.3-0.6,5.4-1.4,8.2-1.4c1.6,0,3.3,0.1,5,0.2c1.8,0.1,3.4,0.2,4.5,0.2c2.1-0.1,12.9-2.3,14.5-3.5
					l0.2-0.1c0.5-0.2,2-0.9,2.7-1.4l0,0c-0.1-1.1,0.6-1.5,1.3-1.6c0.5-0.1,1.5-0.3,3.2-0.5s3.7-0.5,4.7-0.7c1.7-0.4,4.4-1.4,5.9-2.2
					c1.5-0.7,8.5-2.6,9.3-2.8l0.5,1.9c-2.1,0.6-7.8,2.1-8.9,2.7c-1.6,0.8-4.4,1.8-6.3,2.3c-1.1,0.3-3.1,0.5-4.9,0.8
					c-1,0.1-2.1,0.3-2.7,0.4c0,0.4-0.2,0.9-0.8,1.3c-0.9,0.7-2.6,1.5-3,1.6C102.8,89.2,100.4,89.9,97.8,90.5z"/>
				<path d="M97.8,90.7c-2.7,0.7-5.5,1.3-8.3,1.7c-1.4,0.3-2.8,0.2-4.2,0.1c-1.4-0.1-2.8-0.2-4.2-0.2s-2.8-0.2-4.2,0
					s-2.7,0.4-4.1,0.8l-2,0.5c-0.7,0.2-1.4,0.4-2.1,0.4c-1.4,0.1-2.9-0.1-4.3-0.5c-0.1,0-0.2-0.2-0.1-0.3l0,0l0,0l0.7-1.9l0,0
					c0-0.1,0.2-0.2,0.3-0.1l0,0c3,1.1,6.1-0.5,9.2-1c1.6-0.3,3.2-0.5,4.8-0.4l4.8,0.2c1.6,0.1,3.2,0.3,4.7,0.1
					c1.6-0.2,3.1-0.5,4.7-0.8c1.6-0.3,3.1-0.7,4.6-1c0.8-0.2,1.5-0.4,2.3-0.6c0.7-0.2,1.5-0.5,2.2-0.9l0,0l0.2-0.1l0,0
					c0.9-0.4,1.9-0.9,2.7-1.4v0.1c-0.1-0.6,0.2-1.2,0.7-1.5s1.1-0.3,1.6-0.4c1.1-0.2,2.2-0.3,3.3-0.5c1.1-0.1,2.2-0.3,3.2-0.5
					c1.1-0.2,2.1-0.6,3.1-1s2-0.8,3-1.2c1-0.5,2.1-0.8,3.1-1.1c2.1-0.6,4.2-1.2,6.3-1.8c0.1,0,0.2,0,0.3,0.1l0,0l0.5,1.9
					c0,0.1,0,0.2-0.1,0.3c-1.9,0.5-3.8,1.1-5.7,1.6c-0.9,0.3-1.9,0.6-2.8,0.9c-0.9,0.4-1.8,0.8-2.7,1.2c-1.8,0.7-3.8,1.4-5.7,1.6
					l-5.9,0.8l0.2-0.2c0,0.5-0.3,0.9-0.6,1.2c-0.3,0.3-0.7,0.5-1.1,0.8c-0.7,0.4-1.5,0.8-2.3,1.1l0,0c-0.9,0.6-1.9,0.9-3,1.2
					C99.9,90.2,98.9,90.4,97.8,90.7L97.8,90.7z M97.8,90.4c1-0.3,2-0.5,3-0.8s2-0.6,2.9-1.2l0,0l0,0c0.8-0.3,1.5-0.7,2.2-1.1
					c0.4-0.2,0.7-0.4,1-0.7c0.3-0.3,0.5-0.6,0.5-1c0-0.1,0.1-0.2,0.2-0.2l5.9-0.8c2-0.2,3.8-0.9,5.6-1.6c0.9-0.4,1.8-0.8,2.7-1.2
					c0.9-0.4,1.9-0.6,2.8-0.9c1.9-0.6,3.8-1.1,5.7-1.6l-0.1,0.3l-0.5-1.9l0.3,0.1c-2.1,0.6-4.2,1.1-6.3,1.8c-1,0.3-2.1,0.6-3.1,1.1
					s-2,0.9-3.1,1.2c-1,0.4-2.1,0.7-3.2,0.9c-1.1,0.2-2.2,0.3-3.3,0.5c-1.1,0.1-2.2,0.3-3.2,0.4c-0.5,0.1-1.1,0.1-1.5,0.4
					c-0.5,0.2-0.7,0.8-0.6,1.3v0.1c-0.4,0.3-0.9,0.6-1.3,0.8c-0.5,0.2-0.9,0.5-1.4,0.7l0,0l-0.2,0.1l0,0c-0.7,0.4-1.5,0.7-2.2,0.9
					c-0.8,0.2-1.5,0.4-2.3,0.6c-1.5,0.4-3.1,0.7-4.7,1.1c-1.6,0.3-3.1,0.6-4.7,0.8c-1.6,0.2-3.2,0-4.8-0.1l-4.8-0.2
					c-1.6-0.1-3.1,0.1-4.7,0.4c-1.6,0.3-3.1,0.7-4.6,1.1c-1.6,0.5-3.3,0.4-4.8-0.1l0.3-0.1l-0.6,1.9l-0.1-0.3
					c1.3,0.4,2.7,0.6,4.1,0.5c0.7-0.1,1.3-0.2,2-0.4l2-0.5c1.4-0.3,2.8-0.6,4.2-0.8s2.8,0,4.2,0c1.4,0.1,2.8,0.1,4.2,0.2
					c1.4,0.1,2.8,0.2,4.2-0.1C92.3,91.6,95.1,91,97.8,90.4L97.8,90.4z"/>
			</g>
			<g>
				<path class="st2" d="M108.7,95.3c1.6,6.6,1.6,14.3-5.1,15.9c-7.7,1.9-18-5.6-19.4-10.4c-2.8-9.6,3.3-10.2,10-11.8
					C101,87.4,107.5,90.4,108.7,95.3z"/>
				<path d="M109,95.3c0.4,1.6,0.8,3.2,0.9,4.9c0.2,1.6,0.2,3.3-0.2,5c-0.3,1.7-1,3.3-2.3,4.6c-1.2,1.3-2.9,1.9-4.6,2.2
					c-1.7,0.2-3.4,0.2-5-0.3c-1.6-0.4-3.2-1-4.7-1.7c-2.9-1.5-5.6-3.6-7.7-6.2c-0.5-0.7-1-1.4-1.3-2.2l-0.2-0.6l-0.2-0.6
					c-0.1-0.4-0.2-0.8-0.3-1.2c-0.3-1.6-0.5-3.3,0.1-5s2.1-2.8,3.6-3.5s3.2-1.1,4.7-1.5l2.4-0.6c0.8-0.2,1.6-0.3,2.5-0.4
					c1.7-0.1,3.4,0.1,5,0.5c1.6,0.5,3.2,1.2,4.5,2.3C107.6,92.1,108.6,93.6,109,95.3L109,95.3z M108.4,95.4
					c-0.4-1.5-1.4-2.8-2.6-3.8c-1.2-1-2.7-1.7-4.2-2.1s-3.1-0.5-4.7-0.4c-1.6,0.1-3.1,0.5-4.7,0.9c-1.6,0.4-3.2,0.7-4.6,1.3
					c-1.4,0.6-2.7,1.6-3.3,3c-0.5,1.4-0.5,3.1-0.2,4.7c0.1,0.4,0.2,0.8,0.3,1.2l0.1,0.6l0.2,0.5c0.3,0.7,0.7,1.4,1.2,2
					c2,2.5,4.7,4.4,7.6,5.8c1.4,0.7,3,1.2,4.5,1.6c1.6,0.4,3.2,0.4,4.7,0.2s3-0.9,4.1-2s1.8-2.5,2.1-4
					C109.5,101.8,109.1,98.6,108.4,95.4L108.4,95.4z"/>
			</g>
			<g>
				<path class="st3" d="M107.5,95.9c1.4,5.9,1.4,12.8-4.6,14.3c-6.9,1.7-16.2-5-17.4-9.4c-2.5-8.6,3-9.2,9-10.6
					C100.6,88.7,106.5,91.5,107.5,95.9z"/>
				<path d="M107.7,95.8c0.7,2.8,1.2,5.8,0.6,8.8c-0.3,1.5-0.9,2.9-2,4s-2.6,1.7-4,1.9c-3,0.5-6-0.4-8.6-1.8
					c-2.6-1.3-5.1-3.1-6.9-5.5c-0.4-0.6-0.9-1.2-1.1-1.9l-0.2-0.5l-0.1-0.5c-0.1-0.4-0.2-0.7-0.3-1.1c-0.3-1.4-0.4-3,0.1-4.4
					s1.8-2.5,3.2-3.1s2.8-1,4.2-1.3s2.9-0.8,4.4-0.8c1.5-0.1,3,0.1,4.4,0.5s2.8,1.1,4,2C106.4,93,107.3,94.4,107.7,95.8L107.7,95.8z
					 M107.4,95.9c-0.4-1.4-1.2-2.6-2.3-3.5c-1.1-0.9-2.4-1.5-3.8-1.9c-1.4-0.4-2.9-0.5-4.3-0.4c-1.4,0.1-2.8,0.5-4.3,0.8
					c-1.4,0.3-2.9,0.7-4.2,1.2c-1.3,0.6-2.5,1.5-3,2.8s-0.4,2.8-0.2,4.3c0.1,0.4,0.2,0.7,0.2,1.1l0.1,0.5l0.2,0.5
					c0.3,0.7,0.7,1.3,1.1,1.9c1.8,2.3,4.2,4,6.8,5.3c2.6,1.2,5.5,2.1,8.4,1.6c1.4-0.2,2.8-0.8,3.8-1.8s1.6-2.3,1.9-3.7
					C108.4,101.7,108,98.7,107.4,95.9L107.4,95.9z"/>
			</g>
			<g>
				<g>
					<path class="st2" d="M101.7,106.7l0.4,1c0.1,0.3-0.1,0.7-0.5,0.8l-1.8,0.3c-0.4,0.1-0.8-0.2-1-0.5l-0.4-1
						c-0.1-0.3-0.5-0.5-0.9-0.5c-1,0.1-2,0-2.8-0.1c-0.3,0-0.6-0.2-0.7-0.5l-1-2.5c-0.1-0.3,0.1-0.7,0.5-0.8l1.6-0.3
						c0.4-0.1,0.8,0.2,1,0.5l0,0c0.1,0.3,0.5,0.5,0.8,0.5c0.4,0,0.9,0,1.4-0.1c1-0.2,1.3-0.4,1.1-0.9c-0.2-0.6-1.2-0.6-2-0.6
						l-1.3-0.1c-1.9-0.1-4.2-0.5-5.3-3.2c-0.9-2.1-0.1-3.6,1.9-4.5c0.3-0.1,0.4-0.4,0.3-0.7l-0.4-1c-0.1-0.3,0.1-0.7,0.5-0.8
						l1.8-0.3c0.4-0.1,0.8,0.2,1,0.5l0.4,1c0.1,0.3,0.5,0.5,0.8,0.5c1.1,0,2.1,0.1,2.8,0.2c0.3,0,0.6,0.2,0.7,0.5l1,2.4
						c0.1,0.3-0.1,0.7-0.5,0.8l-1.6,0.3c-0.4,0.1-0.8-0.2-1-0.5V97c-0.1-0.3-0.5-0.5-0.8-0.5s-0.8,0-1.3,0.1c-1.1,0.2-1.4,0.5-1.2,1
						s0.9,0.5,1.8,0.5l1.2,0.1c2,0.1,4.4,0.4,5.6,3.3c1.1,2.6,0.1,3.8-1.8,4.5C101.7,106.1,101.5,106.4,101.7,106.7z"/>
					<g>
						<path d="M101.9,106.6l0.2,0.5l0.1,0.3c0,0.1,0.1,0.2,0.1,0.3c0.1,0.3-0.1,0.7-0.3,0.8c-0.1,0.1-0.3,0.1-0.4,0.2l-0.3,0.1
							l-1.2,0.2l-0.3,0.1c-0.1,0-0.3,0-0.4,0c-0.3,0-0.5-0.2-0.8-0.4c-0.1-0.1-0.2-0.2-0.3-0.4l-0.1-0.3l-0.2-0.5
							c-0.1-0.2-0.1-0.2-0.2-0.3c-0.1-0.1-0.2-0.1-0.3-0.1c-0.7,0.1-1.6,0.1-2.4,0c-0.2,0-0.4,0-0.7-0.1s-0.6-0.2-0.8-0.5
							s-0.2-0.5-0.3-0.7l-0.2-0.6l-0.5-1.1c-0.1-0.2-0.1-0.3-0.2-0.6c-0.1-0.3,0-0.8,0.3-1c0.1-0.1,0.3-0.2,0.5-0.2s0.2,0,0.3-0.1
							l0.6-0.1l0.6-0.1h0.1c0.1,0,0.2,0,0.2,0c0.2,0,0.3,0,0.4,0.1c0.3,0.1,0.5,0.3,0.7,0.5c0,0.1,0.1,0.1,0.1,0.2l0,0
							c0,0,0,0.1,0.1,0.1c0.1,0.1,0.2,0.1,0.3,0.1h0.6c0.4,0,0.8,0,1.1-0.1c0.2,0,0.3-0.1,0.4-0.1c0.1-0.1,0,0.1,0,0s0-0.1-0.1-0.2
							c-0.1-0.1-0.3-0.1-0.4-0.1c-0.3-0.1-0.7-0.1-1.1-0.1c-1.5-0.2-3.3-0.2-4.8-1.1c-0.7-0.5-1.3-1.1-1.7-1.9
							c-0.4-0.7-0.7-1.5-0.7-2.4s0.5-1.7,1.1-2.3c0.3-0.3,0.7-0.5,1.1-0.7l0.3-0.1c0.1,0,0.1-0.1,0.1-0.1c0.1-0.1,0.1-0.2,0-0.3
							c-0.2-0.4-0.3-0.7-0.5-1.2c-0.1-0.3,0.1-0.6,0.3-0.8c0.1-0.1,0.2-0.1,0.4-0.2l0.3-0.1l1.2-0.2l0.3-0.1c0.1,0,0.3,0,0.4,0
							c0.3,0,0.5,0.1,0.7,0.3c0.6,0.8,0.5,1.7,1.2,1.7c0.8,0,1.6,0,2.4,0.1c0.2,0,0.4,0,0.6,0.1c0.3,0.1,0.5,0.2,0.7,0.5
							s0.2,0.4,0.3,0.6l0.2,0.5l0.5,1.1c0.1,0.2,0.2,0.3,0.2,0.7c0,0.3-0.2,0.7-0.5,0.8s-0.5,0.1-0.7,0.2l-0.6,0.1l-0.6,0.1
							c-0.3,0.1-0.6,0-0.8-0.1c-0.3-0.1-0.5-0.3-0.6-0.6c-0.1-0.1-0.1-0.2-0.2-0.2c-0.1-0.1-0.2-0.1-0.4-0.1L97,97
							c-0.4,0-0.8,0.1-1.1,0.2c-0.2,0-0.3,0.1-0.3,0.2l0,0c0,0,0,0,0,0.1s0.3,0.2,0.6,0.2c0.4,0,0.8,0.1,1.2,0.1
							c1.5,0.1,3.3,0.1,4.8,1.2c0.7,0.5,1.3,1.2,1.7,1.9c0.4,0.8,0.7,1.5,0.7,2.4c0.1,0.9-0.3,1.9-1.1,2.4c-0.3,0.3-0.7,0.5-1.1,0.6
							l-0.3,0.1c-0.1,0-0.1,0-0.1,0.1C101.9,106.4,101.9,106.5,101.9,106.6L101.9,106.6z M101.4,106.8c-0.1-0.3-0.1-0.6,0.1-0.9
							c0.1-0.1,0.2-0.2,0.4-0.3l0.3-0.1c0.3-0.2,0.7-0.3,0.9-0.6c0.6-0.4,0.8-1.1,0.7-1.8c-0.2-1.4-0.9-2.9-2.1-3.7
							c-1.2-0.8-2.8-0.9-4.4-0.9c-0.4,0-0.8,0-1.2-0.1c-0.2,0-0.4-0.1-0.7-0.1c-0.2-0.1-0.6-0.3-0.7-0.6c-0.1-0.1-0.1-0.3-0.1-0.5
							s0.1-0.4,0.3-0.5c0.3-0.2,0.5-0.3,0.7-0.4c0.4-0.1,0.8-0.2,1.3-0.2h0.6c0.2,0,0.6,0,0.8,0.2c0.2,0.1,0.5,0.4,0.6,0.7
							c0,0.1,0.1,0.2,0.2,0.2c0.1,0.1,0.2,0.1,0.3,0.1l0.6-0.1l0.6-0.1c0.2,0,0.4-0.1,0.5-0.1c0.1-0.1,0.2-0.1,0-0.6l-0.4-1.1
							l-0.2-0.6c-0.1-0.2-0.2-0.4-0.2-0.5c-0.1-0.1-0.2-0.2-0.3-0.2s-0.4-0.1-0.5-0.1c-0.8-0.1-1.5-0.2-2.4-0.1
							c-0.3,0-0.5-0.1-0.7-0.3S96.1,93,96,92.9l-0.2-0.6L95.7,92c0-0.1-0.1-0.1-0.1-0.2c-0.1-0.1-0.2-0.2-0.4-0.2
							c-0.1,0-0.1,0-0.2,0l-0.3,0.1l-1.2,0.2L93.2,92c-0.1,0-0.1,0-0.2,0.1c-0.1,0.1-0.1,0.2-0.1,0.3c0.1,0.3,0.3,0.7,0.4,1.1
							c0.1,0.2,0.1,0.6-0.1,0.8c-0.1,0.1-0.2,0.2-0.3,0.3l-0.3,0.1c-0.3,0.2-0.7,0.4-0.9,0.6c-0.6,0.5-0.9,1.1-0.9,1.9
							c0,0.7,0.3,1.5,0.6,2.1c0.4,0.7,0.9,1.2,1.5,1.6c1.3,0.8,2.9,0.8,4.5,0.9c0.4,0,0.8,0,1.2,0.1c0.2,0,0.5,0.1,0.7,0.2
							c0.2,0.1,0.5,0.4,0.6,0.7c0,0.1,0.1,0.4,0,0.6c-0.1,0.2-0.2,0.4-0.4,0.4c-0.3,0.2-0.5,0.2-0.7,0.3c-0.4,0.1-0.8,0.1-1.3,0.2
							h-0.6c-0.3,0-0.6-0.1-0.8-0.3c-0.1-0.1-0.2-0.2-0.3-0.3c0-0.1-0.1-0.1-0.1-0.2l0,0c0-0.1-0.1-0.1-0.2-0.1h-0.1c0,0,0,0-0.1,0
							h-0.1l-0.6,0.1l-0.6,0.1h-0.3h-0.1l0,0l0.2,0.5l0.4,1.1l0.2,0.6c0.1,0.2,0.2,0.4,0.2,0.4c0,0.1,0.1,0.1,0.2,0.2
							c0.1,0,0.4,0,0.5,0.1c0.8,0.1,1.5,0.1,2.4,0.1c0.3,0,0.6,0.1,0.8,0.3s0.4,0.5,0.4,0.7l0.2,0.6l0.1,0.3c0,0,0,0.1,0.1,0.1
							c0.1,0.1,0.2,0.1,0.3,0.2c0.1,0,0.1,0,0.2,0h0.3l1.2-0.2h0.3c0.1,0,0.1,0,0.1,0c0.1,0,0.1-0.1,0.1-0.2c0,0,0-0.1-0.1-0.2
							l-0.1-0.3L101.4,106.8L101.4,106.8z"/>
					</g>
				</g>
			</g>
			<g>
				<path d="M73.6,100.9h0.9l-0.1-0.4l-1-0.2c-0.1-0.4-0.3-0.7-0.4-1L72.2,97l-0.4-1.2l-0.2-0.1l-2.2,0.5l0.2,0.5l0.7-0.1l0.9,2.6
					c0.1,0.3,0.2,0.7,0.3,1.1l-0.9,0.3l0.1,0.4l1.7-0.1H73.6L73.6,100.9z"/>
				<path d="M78.6,98c0.5,2-0.3,3-1.5,3c-1.2,0.1-2.5-0.7-2.9-2.7c-0.5-2,0.3-3,1.5-3C76.9,95.2,78.1,96.1,78.6,98z M77,100.6
					c0.4,0,0.5-0.5,0.1-2.4c-0.5-1.9-0.9-2.4-1.3-2.4c-0.4,0-0.5,0.5,0,2.5C76.2,100.2,76.6,100.6,77,100.6z"/>
				<path d="M83,97.8c0.5,2-0.2,3-1.1,3.1c-1,0.1-2-0.7-2.5-2.7s0.2-3,1.1-3.1C81.5,95,82.5,95.8,83,97.8z M81.7,100.5
					c0.3,0,0.4-0.5,0-2.5c-0.5-2-0.8-2.4-1.1-2.4s-0.4,0.5,0,2.5C81.1,100.1,81.4,100.5,81.7,100.5z"/>
			</g>
			<g>
				<path d="M119.1,93.6l0.9-0.2l-0.1-0.4h-1c-0.1-0.4-0.2-0.7-0.3-1.1l-0.6-2.4l-0.3-1.2l-0.1-0.1l-2.2,1.1l0.1,0.6l0.7-0.2
					l0.7,2.8c0.1,0.4,0.2,0.7,0.3,1.1l-0.9,0.5l0.1,0.4l1.7-0.4L119.1,93.6L119.1,93.6z"/>
				<path d="M124.2,89.5c0.5,2-0.3,3.1-1.5,3.4c-1.2,0.3-2.4-0.4-2.9-2.3c-0.5-2,0.3-3.1,1.4-3.4C122.5,86.9,123.7,87.5,124.2,89.5z
					 M122.6,92.4c0.4-0.1,0.5-0.6,0-2.5s-0.9-2.3-1.2-2.2c-0.4,0.1-0.5,0.6,0,2.5C121.9,92.1,122.2,92.5,122.6,92.4z"/>
				<path d="M129.2,88.2c0.5,2-0.3,3.1-1.5,3.4s-2.4-0.4-2.9-2.3c-0.5-2,0.3-3.1,1.4-3.4C127.4,85.6,128.7,86.3,129.2,88.2z
					 M127.6,91.2c0.4-0.1,0.5-0.6,0-2.5s-0.9-2.3-1.2-2.2c-0.4,0.1-0.5,0.6,0,2.5C126.9,90.9,127.2,91.3,127.6,91.2z"/>
			</g>
			<g>
				<path d="M104.8,84.3c0.9,0.3,1.7,0.7,2.5,1.3c0.4,0.3,0.7,0.6,1.1,1c0.3,0.4,0.6,0.8,0.8,1.3c0.4,1.7,0.9,3.5,1.7,5.1l1.3,2.4
					c0.4,0.8,0.8,1.6,1.2,2.4c0.8,1.6,1.4,3.3,2,5l-0.1-0.2c0.2,0.1,0.3,0.3,0.5,0.5c0.1,0.2,0.2,0.4,0.3,0.6
					c0.1,0.4-0.1,0.8-0.4,1.1l-0.1-0.1c0.1-0.3,0.2-0.7,0.1-1c-0.1-0.1-0.1-0.3-0.3-0.4c-0.1-0.1-0.3-0.2-0.4-0.2h-0.1l-0.1-0.1
					c-0.9-1.6-1.7-3.2-2.4-4.9c-0.3-0.8-0.7-1.7-1-2.5l-0.9-2.6c-0.3-0.9-0.7-1.7-1.1-2.5c-0.4-0.8-0.9-1.6-1.2-2.5
					c-0.2-0.7-0.8-1.4-1.5-2C106.2,85.5,105.5,84.9,104.8,84.3L104.8,84.3z"/>
			</g>
		</g>
		<g>
			<path class="st0" d="M51.8,100.4c-2.9-1.2-2.2-0.3-1.3,1.5s4.7,16.5,4.7,16.5s4.8-3.5,6.5-3.3c1.8,0.3,2.5-1.4,4.4-2.1
				c1.9-0.6,10.2-5.4,12.4-7.6c2.2-2.2,3.3-2.3,5.4-2c2.1,0.3,3.7,0,5.8-2.1c2.1-2.2,6.7-4.9,8.4-6.6c0,0,3.4-3.5,4.4-5.4
				c1-2,2.8-3.9,5.1-5.6c2.4-1.7,7-4.8,8.6-7.6c1.6-2.8,1.8-3.9,1.8-3.9s0.1-0.1-1.4-1.7S111,60.3,111,60.3l-1.8-3.9
				c0,0-9,11.2-12.7,13.3c-1.6,0.9-3.9,5.3-6.3,7.7c-1.2,1.2-4.9,2.8-7.3,4.6c-2.4,1.9-5.5,3.1-7,6c-2.3,4.4-10.8,7.4-11.9,8.5
				C63.1,97.6,54.7,101.5,51.8,100.4z"/>
			<g>
				<path class="st1" d="M97.1,92.1l0.5-2.8c0-0.1,3-3.5,6.2-5.8c2.9-2.1,7.6-5.7,8.9-7.1c1.3-1.3,3.3-4.6,3.3-4.7l1,1
					c-0.1,0.1-2.1,3.6-3.6,5c-1.5,1.5-6.4,5.3-9.1,7.3C101.5,87,97.1,92.1,97.1,92.1z"/>
				<path d="M97.1,92.2L97.1,92.2c0.1-0.9,0.2-2,0.3-2.9l0,0l0,0c0.7-0.9,1.4-1.6,2.2-2.4s1.5-1.5,2.4-2.2c1.6-1.4,3.4-2.6,5.1-3.9
					c1.7-1.3,3.4-2.6,5-4c0.8-0.7,1.4-1.5,2-2.4s1.2-1.8,1.7-2.7l0.1-0.2l0.1,0.1l1,1l0.1,0.1l-0.1,0.1c-0.6,1-1.2,2-1.9,2.9
					c-0.7,1-1.4,1.9-2.2,2.7c-1.7,1.6-3.6,3-5.4,4.4c-1.8,1.4-3.8,2.7-5.5,4.3c-0.8,0.8-1.7,1.6-2.5,2.5l-1.2,1.3l-0.6,0.6l-0.3,0.3
					L97.3,92l-0.1,0.1C97.3,92.1,97.1,92.2,97.1,92.2z M97.1,91.9C97.1,91.9,97,92,97.1,91.9v-0.1l0.1-0.2l0.3-0.3l0.6-0.7l1.2-1.3
					c0.8-0.8,1.6-1.7,2.4-2.5c1.7-1.7,3.6-2.9,5.4-4.4c1.8-1.4,3.7-2.8,5.4-4.3s2.9-3.6,4.1-5.5v0.2l-1-1h0.2
					c-0.6,0.9-1.1,1.8-1.7,2.7c-0.6,0.9-1.3,1.8-2.1,2.5c-1.6,1.5-3.3,2.8-4.9,4.1c-0.8,0.7-1.7,1.3-2.5,1.9
					c-0.9,0.6-1.7,1.3-2.5,1.9c-1.6,1.4-3.2,2.9-4.5,4.4l0,0C97.6,90.2,97.3,91,97.1,91.9z"/>
			</g>
			<g>
				<path class="st1" d="M90.8,81.2l-2.4-0.3c0.7-0.5,4.1-3.5,5.3-5.1c1.6-2,3-3.9,4.1-4.5c1.2-0.6,7.2-7.4,10.7-11.4l0.8,1.3
					C108.4,62.3,100,72,98.2,73c-0.8,0.4-2.3,2.3-3.6,4C93.1,78.8,91.7,80.6,90.8,81.2z"/>
				<path d="M90.8,81.3L90.8,81.3L88.4,81L88,80.9l0.3-0.3c0.9-0.7,1.8-1.6,2.7-2.4s1.7-1.7,2.5-2.6c0.7-1,1.5-1.9,2.3-2.9
					c0.4-0.5,0.8-0.9,1.3-1.3c0.2-0.2,0.6-0.4,0.8-0.5c0.2-0.2,0.5-0.4,0.7-0.6c1.8-1.6,3.4-3.4,5.1-5.2c1.6-1.8,3.2-3.6,4.8-5.4
					l0.1-0.2l0.1,0.2l0.8,1.3l0.1,0.1l-0.1,0.1l-4.5,5.1c-1.5,1.7-3,3.4-4.6,5c-0.4,0.4-0.8,0.8-1.3,1.2c-0.2,0.2-0.4,0.4-0.7,0.5
					c-0.2,0.1-0.4,0.3-0.6,0.5c-0.8,0.8-1.5,1.7-2.2,2.6l-2.1,2.7c-0.4,0.4-0.7,0.9-1.1,1.3C91.7,80.6,91.4,80.9,90.8,81.3z
					 M90.7,81L90.7,81c0.4-0.3,0.8-0.7,1.2-1.1s0.7-0.9,1.1-1.3l2.1-2.7c0.7-0.9,1.4-1.8,2.2-2.6c0.2-0.2,0.4-0.4,0.7-0.6
					c0.2-0.1,0.4-0.3,0.6-0.5c0.4-0.4,0.8-0.7,1.2-1.1c1.6-1.6,3.2-3.3,4.7-4.9c1.5-1.7,3-3.4,4.5-5.1v0.2l-0.8-1.3h0.2
					c-1.6,1.8-3.2,3.7-4.8,5.5s-3.2,3.6-5,5.3c-0.2,0.2-0.4,0.4-0.7,0.6s-0.5,0.3-0.7,0.5c-0.4,0.4-0.9,0.8-1.3,1.3
					c-0.8,0.9-1.5,1.9-2.3,2.8c-0.8,1-1.7,1.8-2.5,2.6c-0.9,0.8-1.8,1.7-2.8,2.4l-0.1-0.3L90.7,81z"/>
			</g>
			<g>
				<path class="st1" d="M53.7,103.7c-0.4-0.1-0.8-0.2-1.2-0.4l0.6-1.7c1.6,0.9,5-0.3,6.6-1.5c1.6-1.1,7.9-2.8,9-3.3
					c1-0.4,5.5-4.2,7.5-6.3c1.9-2,7.9-6.8,8.2-7l0.5,1.5c-0.1,0-6.1,4.9-8,6.8c-1.8,1.9-6.7,6-7.9,6.6c-1,0.5-7.3,2.1-8.7,3.2
					C58.7,102.8,55.8,104,53.7,103.7z"/>
				<path d="M53.7,103.8c-0.4-0.1-0.8-0.2-1.2-0.4l-0.1-0.1v-0.1l0.6-1.7l0.1-0.2l0.2,0.1c0.6,0.3,1.4,0.3,2.2,0.2
					c0.7-0.1,1.5-0.3,2.2-0.6s1.4-0.6,2-1.1c0.7-0.5,1.4-0.7,2.1-1c1.5-0.6,2.9-1,4.4-1.5c0.7-0.2,1.5-0.5,2.2-0.7s1.3-0.8,1.9-1.2
					c2.4-1.9,4.7-3.9,7-6.1c2.3-2.1,4.7-4,7.1-6l0.2-0.1l0.1,0.2l0.5,1.5v0.1l-0.1,0.1c-2.4,1.9-4.8,3.9-7.1,6
					c-2.2,2.2-4.5,4.3-6.9,6.2c-0.6,0.5-1.2,1-2,1.3s-1.5,0.5-2.2,0.7c-1.5,0.5-3,0.9-4.4,1.4c-0.7,0.3-1.4,0.5-2.1,0.9
					c-0.7,0.4-1.3,0.8-2.1,1.1C56.8,103.6,55.3,104,53.7,103.8L53.7,103.8z M53.7,103.5c1.5,0.2,3-0.3,4.4-0.9
					c0.7-0.3,1.4-0.7,2-1.1c0.7-0.5,1.4-0.7,2.1-1c1.5-0.5,2.9-1,4.4-1.5c0.7-0.2,1.5-0.4,2.2-0.7c0.6-0.3,1.3-0.8,1.9-1.3
					c2.4-1.9,4.8-3.9,7-6.1c2.3-2.1,4.7-4,7.1-5.9v0.2l-0.5-1.5l0.2,0.1c-2.4,1.9-4.8,3.9-7.1,5.9c-2.2,2.2-4.5,4.3-6.9,6.2
					c-0.6,0.5-1.2,1-2,1.3c-0.7,0.3-1.5,0.5-2.2,0.7c-1.5,0.5-2.9,0.9-4.4,1.5c-0.7,0.3-1.4,0.6-2,1c-0.7,0.4-1.4,0.8-2.1,1.1
					c-0.7,0.3-1.5,0.5-2.3,0.6s-1.6,0.1-2.4-0.3l0.3-0.1l-0.6,1.7l-0.1-0.2C52.9,103.3,53.3,103.5,53.7,103.5L53.7,103.5z"/>
			</g>
			<g>
				<path class="st1" d="M56.4,116.1l-0.5-1.6c0.6-0.4,3.8-2.5,5.1-2.3c0.9,0.1,1.4-0.4,2.1-1.1l0.1-0.1c0.8-0.8,4.1-3.5,5.1-3.9
					c3.6-1.7,7.6-2.9,8.5-4.6c1.3-2.3,3-2.3,4.2-2.2c0.3,0,0.6,0,0.8,0l0.4-0.1c1.6-0.3,5.9-1,9.8-4.9l0.7,1.4
					c-4.2,4.3-8.9,5-10.5,5.3l-0.4,0.1c-0.3,0.1-0.7,0-1.1,0c-1.3-0.1-2.2,0-3,1.4c-1.4,2.6-7.9,5.7-9.5,6.4c-2.1,0.7-4,2.1-4.4,2.5
					l-0.1,0.1c-0.8,0.8-1.6,1.7-3,1.5C60.1,113.8,57.8,115.1,56.4,116.1z"/>
				<path d="M56.4,116.2L56.4,116.2c-0.2-0.5-0.4-1.1-0.6-1.7v-0.1l0.1-0.1c1-0.7,2.1-1.4,3.2-1.9c0.6-0.2,1.2-0.5,1.8-0.5
					c0.4,0,0.6,0.1,0.9,0c0.3-0.1,0.5-0.2,0.7-0.4c0.8-0.9,1.8-1.7,2.7-2.5c0.5-0.4,1-0.8,1.5-1.1c0.5-0.4,1-0.7,1.6-1l0,0
					c2-1,4.2-1.8,6.2-2.8c1-0.5,2-1.1,2.4-2.1c0.6-1,1.7-1.8,2.9-1.9c0.6-0.1,1.2,0,1.7,0s1.1-0.2,1.6-0.2c1.1-0.2,2.2-0.5,3.2-1
					c2.1-0.8,4-2.1,5.5-3.7l0.1-0.1l0.1,0.2l0.7,1.4v0.1l-0.1,0.1c-1.7,1.7-3.7,3.1-5.9,4c-1.1,0.5-2.2,0.8-3.4,1.1
					c-0.6,0.1-1.2,0.2-1.8,0.3s-1.2,0-1.8,0s-1.1,0.2-1.5,0.6c-0.2,0.2-0.3,0.4-0.5,0.7s-0.3,0.5-0.5,0.8c-0.8,0.9-1.8,1.7-2.8,2.3
					c-2,1.3-4.1,2.4-6.3,3.4l0,0l0,0c-1.1,0.3-2.1,0.8-3,1.4c-0.5,0.3-1,0.6-1.3,1c-0.4,0.4-0.8,0.8-1.3,1.1s-1.1,0.5-1.7,0.4
					c-0.5-0.1-1,0.2-1.5,0.4s-1,0.5-1.5,0.8l-0.7,0.4l-0.4,0.2C56.8,116,56.5,116.2,56.4,116.2z M56.5,115.9L56.5,115.9
					c0.1-0.1,0.1-0.1,0.2-0.2l0.4-0.2l0.7-0.4c0.5-0.3,1-0.6,1.5-0.8c0.3-0.1,0.5-0.2,0.8-0.3c0.1,0,0.3-0.1,0.4-0.1
					c0.2,0,0.4,0,0.5,0c0.5,0,1.1-0.1,1.5-0.4c0.5-0.3,0.8-0.7,1.2-1.1c0.4-0.4,0.9-0.7,1.4-1.1c1-0.6,2-1.1,3.1-1.5l0,0
					c2.1-1,4.2-2.1,6.2-3.4c1-0.7,1.9-1.4,2.7-2.2c0.2-0.2,0.4-0.4,0.5-0.7c0.2-0.3,0.3-0.5,0.5-0.8c0.4-0.5,1.1-0.7,1.7-0.7
					c0.6,0,1.2,0.1,1.8,0s1.2-0.2,1.7-0.3c1.2-0.2,2.3-0.6,3.4-1c2.2-0.9,4.1-2.3,5.8-4v0.2l-0.7-1.4H92c-1.6,1.6-3.5,3-5.6,3.8
					c-1.1,0.4-2.2,0.8-3.3,1c-0.6,0.1-1.1,0.2-1.7,0.3c-0.6,0-1.1-0.1-1.7,0c-1.1,0.1-2,0.8-2.6,1.7c-0.1,0.2-0.3,0.5-0.5,0.7
					s-0.4,0.4-0.6,0.6c-0.5,0.4-1,0.6-1.5,0.9c-2,1.1-4.2,1.8-6.2,2.8l0,0l0,0c-0.5,0.2-1,0.6-1.5,0.9c-0.5,0.4-1,0.7-1.5,1.1
					c-1,0.8-1.9,1.5-2.7,2.4c-0.2,0.2-0.5,0.4-0.9,0.5c-0.3,0.1-0.7,0.1-1,0c-0.5,0-1.1,0.2-1.7,0.5c-1.1,0.5-2.2,1.1-3.2,1.8
					l0.1-0.2C56.3,114.9,56.4,115.4,56.5,115.9z"/>
			</g>
			<g>
				<path class="st2" d="M84,83.3c0,0,10.1-7.5,13.7,2c2.6,6.8-4.5,10.8-7.1,12.7c-2.1,1.6-13.2,6.3-14.1-2.7
					C76,90.1,79.4,86.9,84,83.3z"/>
				<path d="M83.4,83.4l0.4-0.3c1.1-0.8,2.3-1.5,3.6-2.1c1.3-0.5,2.6-0.9,4.1-1c1.4,0,2.9,0.4,4.1,1.3c1.2,0.9,1.9,2.2,2.4,3.5
					s0.8,2.8,0.6,4.2c-0.2,1.4-0.8,2.7-1.6,3.9c-1.6,2.3-4,3.8-6.2,5.4c-1.2,0.8-2.4,1.3-3.7,1.8c-1.3,0.4-2.6,0.8-4,0.9
					c-1.4,0.1-2.9,0-4.2-0.7s-2.2-2.1-2.5-3.5S76,94,76.3,92.6c0.3-1.4,0.9-2.7,1.7-3.9C79.4,86.5,81.4,84.9,83.4,83.4z M84.3,83.5
					L84.3,83.5c-2.2,1.8-4.3,3.5-5.7,5.7c-0.7,1.1-1.2,2.3-1.5,3.6c-0.2,1.3-0.2,2.6,0.1,3.8s1,2.4,2,3c1.1,0.6,2.4,0.8,3.7,0.7
					s2.6-0.4,3.9-0.8c1.3-0.4,2.5-1,3.6-1.7c2.2-1.6,4.5-3.1,6-5.3c0.7-1.1,1.3-2.3,1.4-3.6c0.1-1.3-0.1-2.6-0.6-3.8
					C96.7,83.9,96,82.8,95,82c-1-0.8-2.2-1.2-3.5-1.2C89,81,86.5,82.1,84.3,83.5z"/>
			</g>
			<g>
				<path class="st3" d="M84.3,84c0,0,9.1-6.7,12.3,1.8c2.3,6.2-4.1,9.8-6.4,11.5c-1.9,1.4-11.9,5.7-12.7-2.4
					C77.2,90.2,80.2,87.3,84.3,84z"/>
				<path d="M84.1,84l0.1-0.1c1-0.7,2.1-1.3,3.2-1.8c1.1-0.5,2.4-0.8,3.6-0.8c1.3,0,2.6,0.3,3.6,1.1c1,0.8,1.7,1.9,2.1,3.1
					c0.5,1.1,0.7,2.4,0.5,3.7c-0.2,1.3-0.7,2.4-1.4,3.4c-1.4,2-3.5,3.4-5.5,4.8c-1,0.7-2.2,1.2-3.3,1.6c-1.2,0.4-2.4,0.7-3.6,0.8
					c-1.2,0.1-2.5,0-3.6-0.7c-1.1-0.6-1.9-1.8-2.2-3s-0.3-2.5-0.1-3.7S78.3,90,79,89C80.3,87,82.3,85.5,84.1,84z M84.5,84.1
					L84.5,84.1c-1.9,1.6-3.9,3.1-5.2,5.1c-0.7,1-1.1,2.1-1.4,3.3c-0.2,1.2-0.1,2.4,0.1,3.5c0.3,1.1,0.9,2.2,1.9,2.8s2.2,0.7,3.4,0.7
					c1.2-0.1,2.4-0.3,3.5-0.7s2.3-0.9,3.2-1.6c2-1.4,4-2.8,5.4-4.8c0.7-1,1.2-2.1,1.3-3.3c0.1-1.2-0.1-2.4-0.6-3.5s-1.1-2.1-2-2.9
					c-0.9-0.7-2.1-1.1-3.2-1.1c-1.2,0-2.4,0.3-3.5,0.7C86.5,82.9,85.5,83.5,84.5,84.1z"/>
			</g>
			<g>
				<g>
					<path d="M65.9,101.5l-0.1-0.5l3.1-1.7l0.1,0.5l-0.8,0.8l-1.3,0.8L65.9,101.5z M68.1,106.7L68.1,106.7l-0.4-1.4l-0.6-2.7
						c-0.1-0.7-0.3-1.3-0.5-2l1.5-0.8c0.1,0.7,0.3,1.4,0.4,2l0.7,3.1l0.6-0.4l0.1,0.6L68.1,106.7z"/>
					<path d="M62.4,106.4c-0.5-2.2,0.1-3.7,1.1-4.3s2,0,2.5,2.2s-0.1,3.7-1.1,4.2C64,109.1,62.9,108.6,62.4,106.4z M63.7,102.6
						c-0.3,0.2-0.4,0.8,0.1,3s0.8,2.6,1.1,2.4c0.3-0.2,0.4-0.8-0.1-3S64,102.5,63.7,102.6z"/>
					<path d="M58.2,108.8c-0.5-2.2,0.1-3.7,1.1-4.3s2,0,2.5,2.2s-0.1,3.7-1.1,4.2C59.8,111.5,58.7,111,58.2,108.8z M59.4,105
						c-0.3,0.2-0.4,0.8,0.1,3s0.8,2.6,1.1,2.4c0.3-0.2,0.4-0.8-0.1-3C60.1,105.3,59.7,104.9,59.4,105z"/>
				</g>
				<g>
					<path d="M100.4,80.3c-0.7-1.8-0.3-3.2,0.5-3.9c0.8-0.7,1.8-0.5,2.6,1.3c0.7,1.8,0.4,3.2-0.5,3.9
						C102.2,82.3,101.2,82.1,100.4,80.3z M101.1,76.8c-0.3,0.2-0.3,0.8,0.4,2.6c0.7,1.7,1.1,2,1.3,1.8c0.3-0.2,0.3-0.8-0.5-2.5
						C101.7,76.9,101.4,76.6,101.1,76.8z"/>
				</g>
				<g>
					<path d="M104.5,76.5c-0.7-1.6-0.5-3.2,0.2-4.1c0.7-1,1.6-1.1,2.4,0.5c0.7,1.6,0.5,3.1-0.2,4.1S105.3,78.1,104.5,76.5z
						 M104.9,72.8c-0.2,0.3-0.2,0.9,0.5,2.5c0.7,1.5,1.1,1.7,1.3,1.4c0.2-0.3,0.2-0.9-0.5-2.4C105.5,72.6,105.1,72.5,104.9,72.8z"/>
				</g>
				<g>
					<path d="M106.7,70.8l-0.2-0.4l2.7-2.8l0.2,0.4l-0.7,1.1l-1.2,1.2L106.7,70.8z M110,74.8L110,74.8l-0.7-1.2l-1.2-2.3
						c-0.3-0.5-0.6-1.1-0.9-1.7l1.3-1.4c0.3,0.6,0.6,1.2,0.9,1.7l1.3,2.6l0.5-0.6l0.3,0.5L110,74.8z"/>
				</g>
			</g>
			<g>
				<g>
					<path class="st2" d="M90.5,95L90.5,95c0.2,0.5,0,1-0.3,1.3l-1.3,1c-0.3,0.2-0.7,0.1-0.8-0.3L88,96.8c-0.1-0.4-0.5-0.5-0.8-0.4
						c-0.7,0.4-1.5,0.8-2,1c-0.3,0.1-0.6,0-0.7-0.4l-0.4-1.2c-0.1-0.4,0-1,0.3-1.2l1.7-1.3l0.3,0.8c0.2-0.1,0.9-0.4,1.5-0.9
						c0.8-0.6,1.1-0.9,0.9-1.3c-0.1-0.4-0.9,0-1.5,0.3l-1,0.4c-1.5,0.7-3.2,1.3-3.9-0.7c-0.5-1.5,0.2-3.1,1.8-4.7
						c0.3-0.3,0.4-0.7,0.2-1.1V86c-0.1-0.4,0-1,0.3-1.2l1.3-1c0.3-0.2,0.7-0.1,0.8,0.3l0.1,0.2c0.1,0.4,0.4,0.5,0.7,0.4
						c0.8-0.5,1.5-0.7,2-0.9c0.3-0.1,0.5,0.1,0.7,0.4l0.4,1.1c0.1,0.4,0,1-0.3,1.2l-1.7,1.3l-0.3-0.9c-0.2,0.1-0.8,0.4-1.5,0.9
						c-0.9,0.6-1.1,1-1,1.3s0.6,0.1,1.3-0.2l0.9-0.4c1.5-0.7,3.4-1.4,4.1,0.6c0.6,1.8-0.2,3.3-1.6,4.7C90.5,94.1,90.4,94.6,90.5,95z
						"/>
					<g>
						<path d="M90.8,94.9c0.1,0.3,0.1,0.7,0,1c-0.1,0.2-0.1,0.3-0.3,0.5c-0.1,0.2-0.3,0.2-0.4,0.3l-0.7,0.5l-0.3,0.2l-0.2,0.1
							c-0.1,0.1-0.2,0.1-0.3,0.1c-0.2,0.1-0.5,0-0.7-0.1s-0.3-0.3-0.4-0.5c-0.1-0.3-0.2-0.3-0.2-0.3s0,0-0.1,0.1L87,97l-0.8,0.4
							l-0.8,0.4c-0.1,0.1-0.4,0.2-0.7,0.1c-0.3-0.1-0.5-0.3-0.6-0.4c-0.3-0.7-0.4-1-0.6-1.7c-0.1-0.4,0-0.8,0.2-1.1
							c0.1-0.1,0.1-0.2,0.2-0.2c0.1-0.1,0.2-0.1,0.2-0.2l0.3-0.2l1.3-1c0.2-0.2,0.5-0.1,0.6,0.1l0.1,0.1l0.3,0.8l-0.6-0.3
							c0.6-0.3,1.1-0.5,1.6-0.9c0.2-0.2,0.5-0.4,0.6-0.5c0.2-0.2,0-0.2,0.2-0.1c-0.1,0-0.5,0.1-0.7,0.2l-0.9,0.4
							c-0.6,0.2-1.2,0.5-1.8,0.7s-1.4,0.3-2.1-0.2c-0.6-0.5-0.9-1.2-1-1.8c-0.2-1.4,0.5-2.7,1.4-3.7c0.2-0.2,0.4-0.5,0.7-0.7
							c0.1-0.2,0.2-0.4,0.2-0.7c0-0.1-0.1-0.2-0.1-0.4c0-0.2,0-0.4,0-0.6s0.1-0.4,0.2-0.5c0.1-0.1,0.1-0.2,0.2-0.2l0.2-0.1l0.8-0.6
							l0.4-0.3c0.2-0.1,0.4-0.2,0.7-0.2c0.6,0.1,0.6,0.8,0.7,0.9c0,0.1,0.1,0.1,0.2,0.1c0.1,0,0.1,0,0.3-0.1
							c0.6-0.3,1.1-0.6,1.8-0.8c0.1-0.1,0.5-0.2,0.7,0c0.3,0.1,0.4,0.3,0.5,0.5l0.3,0.9c0,0.2,0.1,0.3,0.2,0.5c0,0.2,0,0.4,0,0.6
							s-0.1,0.4-0.3,0.6C91,86.9,90.9,87,90.9,87l-0.2,0.1l-1.5,1.1c-0.2,0.1-0.5,0.1-0.6-0.1c0,0,0-0.1-0.1-0.1l0,0l-0.3-0.8
							l0.6,0.3c-0.6,0.3-1.2,0.7-1.7,1.1c-0.2,0.2-0.5,0.5-0.5,0.5l0,0C86.5,89,86.4,89,86.4,89s0.2,0,0.3-0.1l2-0.9
							c0.7-0.3,1.4-0.6,2.3-0.5c0.4,0,0.9,0.2,1.2,0.6c0.3,0.3,0.5,0.7,0.6,1.1c0.2,0.8,0.3,1.6,0.1,2.4c-0.2,0.8-0.7,1.4-1.2,2
							c-0.2,0.3-0.6,0.6-0.8,0.7C90.8,94.4,90.7,94.7,90.8,94.9L90.8,94.9z M90.3,95.1c-0.1-0.4-0.1-0.9,0.2-1.3
							c0.2-0.2,0.3-0.3,0.4-0.4c0.1-0.1,0.2-0.3,0.3-0.4c0.4-0.5,0.8-1.1,0.9-1.7c0.2-0.6,0.1-1.3-0.1-1.9c-0.2-0.6-0.6-1-1.1-1
							c-0.6,0-1.2,0.2-1.8,0.5s-1.3,0.6-2,0.9c-0.2,0.1-0.4,0.2-0.7,0.2c-0.2,0-0.5-0.1-0.7-0.4c-0.1-0.2-0.1-0.4-0.1-0.6
							c0.1-0.4,0.2-0.6,0.4-0.7c0.2-0.2,0.3-0.3,0.5-0.4c0.6-0.5,1.3-0.9,1.9-1.2l0,0c0.2-0.1,0.5,0,0.6,0.2l0,0l0.3,0.9l-0.7-0.2
							l1.6-1.1l0.2-0.1c0,0,0.1,0,0.1-0.1c0.1-0.1,0.1-0.2,0.1-0.3c0.1-0.2,0-0.4-0.1-0.7l-0.3-0.9c0-0.1-0.1-0.1-0.1-0.2
							c-0.1,0,0,0-0.2,0c-0.6,0.2-1.1,0.4-1.7,0.7c-0.1,0.1-0.4,0.2-0.6,0.2c-0.3,0-0.5-0.2-0.6-0.4c-0.2-0.4-0.2-0.6-0.3-0.6
							s-0.1,0-0.2,0.1l-0.4,0.3L85.3,85l-0.2,0.1L85,85.2c-0.1,0.1-0.1,0.2-0.1,0.3c0,0.1,0,0.2,0,0.4c0,0.1,0.1,0.3,0.1,0.5
							c0,0.4-0.1,0.8-0.3,1.1c-0.2,0.2-0.4,0.4-0.6,0.7c-0.8,0.9-1.4,2.1-1.2,3.2c0.1,0.6,0.4,1.1,0.8,1.4c0.4,0.3,1,0.2,1.6,0
							s1.1-0.4,1.7-0.7l0.9-0.4c0.3-0.1,0.6-0.3,1.1-0.3c0.1,0,0.4,0.1,0.5,0.2c0.1,0.2,0.2,0.3,0.2,0.5c0,0.3-0.1,0.6-0.2,0.7
							c-0.3,0.3-0.5,0.5-0.8,0.7c-0.5,0.4-1.1,0.7-1.7,1c-0.2,0.1-0.5,0-0.6-0.2v-0.1l-0.3-0.8l0.7,0.2l-1.3,1l-0.3,0.2
							c-0.1,0-0.1,0.1-0.1,0.1s0,0-0.1,0.1s-0.1,0.3-0.1,0.5c0.1,0.3,0.3,1.1,0.5,1.4c0,0.1,0.1,0.1,0.1,0.1s0,0,0.1-0.1l0.7-0.3
							l0.7-0.3l0.4-0.2c0.1,0,0.4-0.2,0.6-0.2c0.6,0.1,0.8,0.6,0.8,0.9C88.9,97,88.9,97,89,97c0,0,0,0,0.1,0l0.2-0.1l0.3-0.2
							l0.7-0.5c0.1-0.1,0.2-0.2,0.3-0.2c0.1-0.1,0.1-0.1,0.1-0.2C90.3,95.5,90.3,95.3,90.3,95.1L90.3,95.1z"/>
					</g>
				</g>
			</g>
			<g>
				<path d="M78.2,105.8c-0.6-0.7-1.1-1.3-1.6-2s-0.9-1.4-1.3-2.1c-0.8-1.5-1.4-3.1-1.7-4.7c0.4,1.6,1.2,3.1,2.1,4.4
					c0.9,1.3,2,2.6,3.2,3.7L78.2,105.8z"/>
			</g>
		</g>
		<g>
			<g>
				<path class="st4" d="M93.6,46.6l15.8,18.8c0,0-3,1.2-5.5,2.9s-5.3,2.9-10.7,6.6s-6.6,5.9-10.8,7c-6.4,1.7-10,4.8-13,8.1
					c-1.7,1.9-2.2,6-3.7,9.1c-1.1,2.2-2.4,4.4-4.4,6.3C60,106.6,58,107,58,107c-0.6,0.1-23.8-8.3-23.8-8.3s11.1-5.9,11.7-10.3
					s2.1-5.9,5.9-10.9c3.8-5.1,9.2-14,12.5-14.5c3.3-0.4,3.9-0.5,6.1-0.2c2.2,0.3,4-0.9,4.7,0s0.3,1,3.2-1s7.8-6.9,8.8-9
					C88.1,50.7,92.8,45.6,93.6,46.6z"/>
				<path d="M94.5,47.2l7.3,8.5l7.9,9.3l0.4,0.5l-0.6,0.2c-1.3,0.5-2.6,1.2-3.8,1.9c-0.6,0.4-1.2,0.7-1.8,1.1s-1.2,0.8-1.8,1.2
					c-2.5,1.4-4.9,2.8-7.3,4.4c-2.4,1.5-4.6,3.2-6.9,5.1c-1.1,0.9-2.4,1.7-3.7,2.3c-1.4,0.6-2.8,0.8-4.1,1.3
					c-2.7,0.9-5.1,2.3-7.3,4.1c-1.1,0.9-2.1,1.9-3,2.9s-1.4,2.3-1.9,3.7c-0.4,1.3-0.8,2.7-1.4,4.1c-0.5,1.4-1.2,2.6-2,3.9
					c-0.8,1.2-1.6,2.4-2.7,3.4c-0.5,0.5-1.1,1-1.8,1.4c-0.7,0.3-1.4,0.6-2.1,0.7l0,0l0,0c-0.3,0-0.3-0.1-0.5-0.1L57,107l-0.8-0.2
					l-1.5-0.5l-3-1l-5.9-2.1l-11.9-4.3l-0.6-0.2l0.6-0.3c3.1-1.7,6.1-3.6,8.7-5.9c0.6-0.6,1.2-1.2,1.8-1.9c0.5-0.7,1-1.4,1.1-2.2
					c0.3-1.8,0.7-3.6,1.7-5.1c0.9-1.6,2-3,3-4.4c1.1-1.4,2.1-2.8,3.1-4.3c2-2.9,4-5.8,6.3-8.6c0.6-0.7,1.2-1.3,1.9-2
					c0.7-0.6,1.4-1.2,2.4-1.5c1-0.2,1.8-0.2,2.7-0.3c0.9-0.1,1.8-0.1,2.7,0c0.4,0,0.9,0.1,1.3,0.2c0.4,0,0.8,0,1.2,0
					s0.8-0.1,1.3-0.2c0.4-0.1,0.9-0.2,1.5-0.1c0.3,0,0.7,0.2,0.8,0.5l0.3,0.4c-0.1,0-0.1,0,0,0s0.1-0.1,0.2-0.1
					c0.2-0.1,0.4-0.2,0.5-0.3c0.7-0.5,1.5-1,2.2-1.5c1.4-1,2.7-2.2,3.9-3.5c1.2-1.2,2.4-2.5,3.5-3.9c0.3-0.3,0.5-0.7,0.7-1.1
					s0.5-0.8,0.7-1.2c0.5-0.7,1.1-1.4,1.7-2.1c0.6-0.7,1.2-1.3,1.9-1.9c0.3-0.3,0.7-0.6,1.1-0.8c0.2-0.1,0.4-0.2,0.7-0.3
					c0.1,0,0.3-0.1,0.4-0.1c0.2,0,0.4,0.1,0.5,0.2L94.5,47.2z M93.4,46.8c0,0-0.1,0-0.3,0c-0.2,0.1-0.3,0.2-0.5,0.3
					c-0.3,0.2-0.7,0.5-1,0.8c-0.6,0.6-1.3,1.2-1.8,1.9c-0.6,0.7-1.1,1.3-1.6,2c-0.2,0.4-0.5,0.7-0.7,1.1s-0.5,0.8-0.7,1.2
					c-1.1,1.5-2.3,2.8-3.5,4c-1.3,1.3-2.6,2.5-4,3.6c-0.7,0.5-1.5,1-2.2,1.5c-0.2,0.1-0.4,0.3-0.6,0.4c-0.1,0.1-0.2,0.1-0.4,0.2
					c-0.1,0.1-0.4,0.1-0.7,0c-0.4-0.3-0.4-0.4-0.5-0.6c-0.1-0.1-0.1-0.1-0.3-0.2c-0.3,0-0.7,0-1.2,0.1c-0.4,0.1-0.9,0.2-1.3,0.2
					c-0.5,0.1-0.9,0.1-1.4,0s-0.9-0.1-1.3-0.2c-0.8-0.1-1.7,0-2.5,0.1s-1.8,0.2-2.6,0.3c-0.7,0.2-1.4,0.7-2,1.3
					c-0.6,0.6-1.2,1.2-1.8,1.9c-2.3,2.6-4.3,5.6-6.3,8.4c-1,1.4-2.1,2.9-3.2,4.3c-1.1,1.4-2.2,2.8-3,4.3c-0.9,1.5-1.4,3.1-1.6,4.9
					c-0.2,1-0.7,1.8-1.2,2.5c-0.6,0.7-1.2,1.4-1.9,2c-1.3,1.2-2.8,2.2-4.2,3.2c-1.5,1-3,1.9-4.6,2.8v-0.5l11.9,4.3l5.9,2.1l3,1
					l1.5,0.5l0.7,0.2l0.6,0.2l0,0c2.8-0.4,4.6-3,6.1-5.3c0.7-1.2,1.4-2.5,1.9-3.8s0.9-2.7,1.3-4.1c0.5-1.4,0.9-2.8,2-3.9
					c1-1.1,2-2.1,3.1-3.1c2.2-1.9,4.8-3.4,7.5-4.3c1.4-0.5,2.8-0.8,4-1.3c1.3-0.5,2.4-1.3,3.5-2.2c2.2-1.8,4.5-3.6,6.9-5.2
					s4.9-3,7.4-4.4c0.6-0.4,1.2-0.7,1.8-1.1s1.2-0.8,1.9-1.1c1.3-0.7,2.6-1.3,3.9-1.9l-0.2,0.7l-7.9-9.4L93.4,46.8L93.4,46.8z"/>
			</g>
			<g>
				<path class="st1" d="M63.6,67.1l-2.2-0.2c0.9-1.8,4.9-3,7.7-3.2c1.6-0.1,5.4-0.4,6.1,0.6c0.2,0.3,1,0.3,2.4-0.1
					c1.3-0.4,11.1-10,12.5-12.6c1.6-3.2,2.2-3.1,2.3-3.3l1.5,0.9c0,0-2.9,3.2-4.7,6.1c-1.9,3-9,10-11.1,10.5
					c-1.2,0.3-3.1,0.8-4.2-0.4c-0.6-0.2-2.7-0.3-5.3,0C65.3,65.8,63.8,66.6,63.6,67.1z"/>
				<path d="M63.6,67.1l-2.2-0.2h-0.1v-0.1c0.4-0.8,1.1-1.3,1.8-1.7c0.7-0.4,1.5-0.7,2.3-0.9c1.6-0.5,3.2-0.8,4.9-0.9
					c0.8,0,1.6-0.1,2.5,0c0.8,0.1,1.7,0.1,2.5,0.6l0.1,0.1c0,0.1,0,0,0.1,0.1c0,0,0.1,0.1,0.2,0.1c0.2,0,0.4,0,0.6,0
					c0.4,0,0.8-0.1,1.2-0.2c0.2,0,0.3-0.1,0.5-0.2s0.3-0.2,0.5-0.3c0.3-0.2,0.6-0.5,0.9-0.8c2.5-2.1,4.8-4.4,7.1-6.8
					c1.1-1.2,2.2-2.4,3.2-3.7c0.5-0.6,0.8-1.4,1.2-2.1c0.2-0.4,0.4-0.7,0.7-1c0.1-0.2,0.3-0.3,0.4-0.5c0.1-0.1,0.4-0.3,0.5-0.4
					l0.1-0.1h0.1l1.5,0.9l0.1,0.1l-0.1,0.1c-1.5,1.8-2.9,3.6-4.2,5.5c-1.2,2-2.8,3.7-4.3,5.4c-1.6,1.6-3.3,3.2-5.2,4.6
					c-0.5,0.3-1,0.7-1.5,0.9c-0.3,0.1-0.6,0.3-0.9,0.3c-0.3,0.1-0.6,0.1-0.9,0.2c-0.6,0.1-1.2,0.2-1.8,0.1s-1.2-0.3-1.6-0.8h0.1
					c-0.8-0.2-1.7-0.2-2.6-0.2c-0.9,0-1.8,0.1-2.7,0.2s-1.8,0.2-2.6,0.4c-0.4,0.1-0.9,0.2-1.3,0.4C64.3,66.6,63.9,66.7,63.6,67.1z
					 M63.6,67.1c0.2-0.4,0.7-0.6,1.1-0.8c0.4-0.2,0.8-0.3,1.3-0.5c0.9-0.2,1.8-0.4,2.6-0.5c0.9-0.1,1.8-0.2,2.7-0.2s1.8,0,2.7,0.1
					l0,0l0,0c0.8,0.8,2,0.8,3.1,0.6c0.6-0.1,1.1-0.2,1.6-0.5s0.9-0.6,1.4-0.9c1.8-1.4,3.5-3,5.1-4.6c1.6-1.7,3.2-3.3,4.3-5.3
					c1.3-1.9,2.8-3.7,4.4-5.4v0.2l-1.5-0.9h0.2c-1.4,1-1.9,2.6-2.8,4c-1,1.3-2.1,2.5-3.2,3.8c-2.2,2.4-4.5,4.8-7,7
					c-0.3,0.3-0.6,0.5-1,0.8c-0.2,0.1-0.3,0.3-0.5,0.4s-0.4,0.2-0.6,0.3c-0.4,0.1-0.8,0.2-1.2,0.2c-0.2,0-0.4,0-0.7,0
					c-0.1,0-0.2-0.1-0.4-0.1c-0.1,0-0.1-0.1-0.2-0.1l-0.1-0.1c-0.6-0.4-1.5-0.5-2.2-0.5c-0.8,0-1.6,0-2.4,0
					c-1.6,0.1-3.2,0.3-4.8,0.7c-0.8,0.2-1.5,0.5-2.3,0.9c-0.7,0.4-1.4,0.8-1.8,1.5v-0.1H63.6z"/>
			</g>
			<g>
				<path class="st1" d="M77,78.7c-0.6-0.1,6.6-0.5,6.6-0.5c0.2-0.1,0.6-0.4,1-0.7c7.1-5.5,20.2-13.2,20.3-13.3l1,1.4
					c-0.2,0.1-13.2,7.7-20.2,13.2c-1.3,1.1-2.2,1.1-4,1.1c-1.6,0-3.3,0.4-4.2,0.7c-1.8,0.6-2.3,1.3-2.8,1.2
					C73.8,81.6,76.7,79.4,77,78.7z"/>
				<path d="M77,78.7L77,78.7C76.9,78.7,76.9,78.7,77,78.7L77,78.7L77,78.7l0.2-0.1h0.2l0.4-0.1l0.8-0.1l1.7-0.2l1.7-0.1l0.8-0.1
					h0.4h0.2h0.1h0.1l0,0l0,0l0,0c0,0,0.1,0,0.1,0.1h-0.2c0.9-0.6,1.7-1.3,2.5-1.9c0.9-0.6,1.7-1.3,2.6-1.9c1.8-1.2,3.5-2.4,5.4-3.5
					l10.9-6.7L105,64l0.1,0.1l1.1,1.4l0.1,0.1l-0.1,0.1c-5.7,3.5-11.3,7-16.7,10.8c-0.7,0.5-1.3,1-2,1.4c-0.7,0.5-1.3,1-2,1.5
					s-1.6,0.7-2.5,0.7c-0.8,0-1.7,0-2.5,0.1s-1.6,0.2-2.4,0.5c-0.8,0.2-1.5,0.6-2.2,1c-0.2,0.1-0.4,0.2-0.6,0.3c-0.1,0-0.2,0-0.4,0
					c-0.1,0-0.1,0-0.2-0.1c-0.1-0.1-0.1-0.2-0.1-0.3c0.2-0.5,0.5-0.7,0.8-1.1C75.8,79.9,76.5,79.4,77,78.7z M77,78.7
					c-0.2,0.4-0.5,0.7-0.8,1l-0.8,0.9c-0.3,0.3-0.6,0.6-0.7,0.9c0,0.1,0,0,0.1,0.1c0.1,0,0.2,0,0.2,0c0.2,0,0.4-0.1,0.5-0.2
					c0.7-0.4,1.5-0.8,2.3-1s1.6-0.4,2.5-0.5c1.7-0.2,3.4,0.1,4.8-0.8c0.7-0.4,1.3-1,2-1.5s1.3-1,2-1.5c5.4-3.8,11.1-7.3,16.9-10.6
					v0.2l-1-1.4h0.2c-1.8,1.1-3.7,2.1-5.5,3.3c-1.8,1.1-3.6,2.3-5.4,3.5c-1.8,1.2-3.5,2.4-5.3,3.6l-2.6,1.9
					c-0.9,0.6-1.7,1.3-2.6,1.9h-0.2l0.1,0.1l0,0l0,0l0,0l0,0h-0.1h-0.2H83h-0.8l-1.7,0.1l-1.7,0.1H78L77,78.7z"/>
			</g>
			<g>
				<path class="st1" d="M57.8,105.9l-1.1-1.4c0,0,4.4-1.8,5.8-6.3c1.5-4.8,3-9.2,3-9.2l2.9-1.5c1.2-2.2-2.7,6.6-4.2,11.2
					C62.7,103.7,57.9,105.9,57.8,105.9z"/>
				<path d="M57.8,106l-1.2-1.3l-0.1-0.1l0.1-0.1c1.4-0.7,2.6-1.6,3.6-2.8c1-1.1,1.7-2.5,2.2-3.9l1.5-4.4l1.4-4.4l0,0l0,0l2.9-1.5
					l-0.1,0.1c0.1-0.1,0.1-0.2,0.2-0.3c0,0,0,0,0.1-0.1c0.1,0,0.2-0.1,0.3,0.1c0,0.1,0,0.1,0,0.1c0,0.1,0,0.1,0,0.1l-0.1,0.2
					l-0.2,0.7l-0.5,1.3l-1,2.6c-0.7,1.8-1.4,3.5-2,5.3c-0.3,0.9-0.6,1.8-1,2.7s-1,1.7-1.6,2.4C61.1,104,59.6,105.2,57.8,106z
					 M57.8,105.9c1.6-0.9,3.1-2.1,4.2-3.6c0.6-0.7,1.1-1.5,1.4-2.4c0.4-0.8,0.6-1.7,0.9-2.6c0.6-1.8,1.3-3.5,2-5.3l1.1-2.6l0.5-1.3
					l0.3-0.7l0.1-0.2v-0.1l0,0c0.1,0.2,0.2,0.1,0.3,0.1l0,0c-0.1,0.1-0.1,0.2-0.2,0.3l0,0l0,0l-2.9,1.4l0.1-0.1
					c-1.1,2.9-2,5.8-2.8,8.8c-0.4,1.5-1.1,3-2.2,4.1c-1.1,1.2-2.4,2.1-3.8,2.7v-0.2L57.8,105.9z"/>
			</g>
			<g>
				<path class="st1" d="M38.2,99.7l-1-1.4c0.3-0.2,0.6-0.4,1-0.6c2.9-1.7,9-5.4,9.2-9.3c0.2-3.5,6.7-12.2,6.9-12.4l1.5,1
					c0,0-6.4,8.5-6.6,11.5c-0.2,4.5-6.7,8.6-10,10.6C38.8,99.3,38.5,99.5,38.2,99.7z"/>
				<path d="M38.2,99.7l-1.1-1.4L37,98.2l0.1-0.1c2-1.3,4.1-2.6,5.9-4.1c0.9-0.8,1.8-1.6,2.6-2.5c0.7-0.9,1.4-1.9,1.5-3.1
					s0.6-2.4,1.2-3.5c0.5-1.1,1.1-2.1,1.8-3.2c1.2-2.1,2.6-4.1,4-6l0.1-0.1l0.1,0.1l1.5,1l0.1,0.1l-0.1,0.1c-1.4,2-2.8,4-4.1,6.1
					c-0.6,1.1-1.2,2.1-1.7,3.2c-0.2,0.6-0.5,1.1-0.6,1.7c0,0.1,0,0.3-0.1,0.4c0,0.2,0,0.3-0.1,0.5c-0.1,0.3-0.1,0.6-0.2,0.9
					c-0.9,2.4-2.8,4.2-4.7,5.8C42.5,97.2,40.4,98.5,38.2,99.7z M38.2,99.7c2-1.3,4.1-2.7,6-4.2c0.9-0.8,1.8-1.6,2.6-2.6
					c0.8-0.9,1.5-1.9,1.8-3.1c0.1-0.3,0.2-0.6,0.2-0.9c0-0.1,0-0.3,0-0.4c0-0.2,0-0.3,0.1-0.5c0.1-0.6,0.4-1.2,0.6-1.8
					c0.5-1.1,1.1-2.2,1.8-3.3c1.3-2.1,2.7-4.1,4.2-6.1V77l-1.4-1h0.2c-1.4,1.9-2.8,3.9-4.1,5.9c-0.6,1-1.2,2.1-1.7,3.2s-1,2.2-1,3.4
					c-0.1,1.3-0.7,2.4-1.5,3.4c-0.8,1-1.7,1.8-2.6,2.6c-1.9,1.5-4,2.7-6.1,3.9v-0.1L38.2,99.7z"/>
			</g>
			<g>
				<path class="st2" d="M64.9,64.2c4.4-1,18.1,3.2,13.7,14c-0.6,1.5-3.4,4.1-4.8,5.6c-2.7,3.1-9.8,7.9-15.2,3.2
					c-5.4-4.7-4.5-11.7-3.3-13.5C56.6,71.9,60.5,65.2,64.9,64.2z"/>
				<path d="M64.9,64.2c1.6-0.3,3.2-0.1,4.8,0.2c1.6,0.3,3.1,0.8,4.6,1.6c1.5,0.7,2.8,1.7,3.9,3.1c0.5,0.7,0.9,1.4,1.2,2.2
					c0.3,0.8,0.4,1.6,0.5,2.5c0.1,1.7-0.4,3.3-1.1,4.8c-0.9,1.5-2.1,2.5-3.2,3.7c-1.1,1.1-2.2,2.4-3.4,3.4s-2.6,1.9-4.1,2.6
					s-3.1,1.1-4.8,1.1c-1.7-0.1-3.4-0.7-4.7-1.7s-2.4-2.3-3.2-3.8s-1.3-3.1-1.4-4.8c-0.1-1.7-0.1-3.4,0.6-5c0.2-0.4,0.5-0.8,0.7-1.1
					l0.7-1c0.5-0.7,1-1.3,1.5-1.9c1-1.3,2.1-2.5,3.3-3.5C61.9,65.5,63.3,64.6,64.9,64.2z M64.9,64.3c-1.6,0.4-2.9,1.3-4,2.4
					s-2.1,2.4-3,3.7c-0.4,0.7-0.9,1.3-1.3,2l-0.6,1c-0.2,0.4-0.4,0.6-0.5,1c-0.5,1.4-0.6,3-0.4,4.5c0.3,3.1,1.8,6,4.2,8
					c1.2,1,2.6,1.6,4.1,1.7s3.1-0.2,4.6-0.8c1.5-0.6,2.8-1.4,4.1-2.4s2.2-2.3,3.3-3.4c1.1-1.2,2.2-2.4,2.9-3.7
					c0.6-1.4,0.9-3,0.8-4.5c-0.1-1.5-0.6-3-1.5-4.2s-2.1-2.3-3.5-3.1c-1.3-0.8-2.8-1.4-4.4-1.9C68.1,64.3,66.5,64,64.9,64.3z"/>
			</g>
			<g>
				<path class="st3" d="M65.1,65.5c4-0.9,16.3,2.9,12.3,12.6c-0.6,1.4-3.1,3.7-4.3,5c-2.5,2.8-8.8,7.1-13.7,2.9
					c-4.8-4.2-4.1-10.5-3-12.1C57.6,72.4,61.1,66.4,65.1,65.5z"/>
				<path d="M65.1,65.4c1.5-0.3,2.9-0.1,4.4,0.2c1.4,0.3,2.8,0.8,4.1,1.6c1.3,0.7,2.5,1.6,3.4,2.8c0.4,0.6,0.8,1.2,1.1,1.9
					c0.3,0.7,0.4,1.4,0.4,2.2c0,1.5-0.3,3-0.9,4.3c-0.7,1.3-1.8,2.3-2.8,3.4c-1,1-1.9,2.1-3.1,3.1c-1.1,0.9-2.4,1.7-3.7,2.3
					c-1.3,0.6-2.8,0.9-4.3,0.8s-2.9-0.7-4-1.6c-2.3-1.8-3.8-4.6-4.1-7.5c-0.1-1.5-0.1-3,0.5-4.4c0.1-0.4,0.4-0.7,0.6-1l0.6-0.9
					c0.4-0.6,0.8-1.2,1.2-1.8c0.9-1.2,1.8-2.3,2.9-3.3C62.4,66.6,63.6,65.7,65.1,65.4L65.1,65.4z M65.1,65.6
					c-1.4,0.3-2.6,1.2-3.6,2.1c-1,1-1.9,2.1-2.8,3.3c-0.4,0.6-0.8,1.2-1.2,1.8l-0.6,0.9c-0.2,0.3-0.4,0.6-0.5,0.9
					c-0.5,1.3-0.6,2.8-0.5,4.2c0.2,2.8,1.6,5.5,3.8,7.3c1.1,0.9,2.5,1.5,3.9,1.5c1.4,0.1,2.8-0.3,4.1-0.8c1.3-0.6,2.5-1.3,3.6-2.3
					c1.1-0.9,2-2,3-3.1c1-1,2-2.1,2.7-3.3c0.6-1.3,0.9-2.7,0.8-4.1c-0.1-1.4-0.6-2.7-1.4-3.9c-0.8-1.1-2-2-3.2-2.7s-2.6-1.2-4-1.6
					C68,65.6,66.5,65.4,65.1,65.6L65.1,65.6z"/>
			</g>
			<g>
				<g>
					<path class="st2" d="M71.8,80.3l0.5,0.5c0.3,0.3,0.4,0.8,0.1,1.1L71.6,83c-0.3,0.5-1,0.5-1.4,0.1l0,0c-0.4-0.4-1-0.4-1.4,0
						s-0.9,0.8-1.3,1.1c-0.4,0.3-0.9,0.3-1.3-0.1l-1.4-1.3c-0.3-0.3-0.4-0.8-0.1-1.1l1.3-1.8l0.8,0.8c0.2-0.2,0.8-0.7,1.2-1.3
						c0.6-0.8,0.7-1.2,0.3-1.5c-0.4-0.4-1,0.2-1.6,0.7l-0.8,0.7c-1.3,1.1-2.9,2.1-4.8,0.3c-1.4-1.4-1.6-3.2-0.7-5.3
						c0.1-0.3,0.1-0.7-0.2-1l-0.5-0.5c-0.3-0.3-0.4-0.8-0.1-1.1l0.8-1.1c0.3-0.5,1-0.5,1.4-0.1l0,0c0.4,0.4,1,0.4,1.3,0
						c0.5-0.5,0.9-0.8,1.3-1.1c0.4-0.3,0.9-0.2,1.2,0.1l1.3,1.2c0.3,0.3,0.4,0.8,0.1,1.1l-1.3,1.8l-0.8-0.8
						c-0.2,0.2-0.7,0.6-1.2,1.3c-0.6,0.8-0.7,1.3-0.4,1.6c0.3,0.3,0.8-0.1,1.4-0.6l0.8-0.7c1.3-1.1,3.1-2.3,5.1-0.4
						c1.8,1.7,1.7,3.4,0.8,5.2C71.4,79.6,71.5,80,71.8,80.3z"/>
					<g>
						<path d="M72,80.1l0.3,0.3l0.2,0.2c0.1,0.1,0.1,0.2,0.2,0.2c0.2,0.3,0.2,0.8,0,1.2l-0.5,0.8l-0.3,0.4c-0.1,0.2-0.3,0.3-0.5,0.4
							c-0.4,0.2-0.8,0.1-1.2-0.1c-0.1-0.1-0.2-0.1-0.3-0.2l-0.1-0.1c-0.1,0-0.2-0.1-0.3-0.1c-0.2,0-0.3,0-0.5,0.2l-0.7,0.6l-0.4,0.3
							l-0.2,0.2c-0.1,0.1-0.2,0.1-0.3,0.2c-0.4,0.2-0.9,0.2-1.3,0c-0.1-0.1-0.2-0.1-0.3-0.2l-0.2-0.2l-0.3-0.3l-0.7-0.6
							c-0.2-0.1-0.6-0.5-0.6-1c0-0.2,0-0.5,0.1-0.7s0.2-0.3,0.3-0.4c0.4-0.5,0.7-1,1.1-1.5l0,0c0.2-0.2,0.4-0.2,0.6-0.1l0,0l0.8,0.8
							h-0.6c0.5-0.5,1-0.9,1.4-1.4c0.2-0.2,0.3-0.6,0.3-0.7c0,0,0,0,0-0.1l-0.1-0.1c0,0,0,0-0.1,0c-0.5,0.2-1,0.8-1.6,1.2
							c-0.5,0.4-1.1,0.9-1.8,1.2c-0.7,0.3-1.5,0.4-2.3,0.1c-0.7-0.3-1.3-0.8-1.8-1.3c-0.5-0.6-0.8-1.3-0.9-2c-0.1-0.7,0-1.5,0.2-2.2
							c0.1-0.3,0.2-0.7,0.4-1c0.1-0.2,0-0.5-0.1-0.7L59.5,73c-0.1-0.1-0.3-0.3-0.4-0.5C59,72.3,59,72.1,59,71.8
							c0-0.2,0.2-0.5,0.3-0.6l0.6-0.8c0.2-0.3,0.7-0.6,1.1-0.6c0.2,0,0.4,0.1,0.6,0.2c0.2,0.2,0.3,0.2,0.4,0.3
							c0.2,0.1,0.5,0.1,0.7-0.1l0.8-0.7l0.4-0.3l0.2-0.2c0.1-0.1,0.2-0.1,0.3-0.2c0.4-0.2,1-0.1,1.3,0.3l0.8,0.7l0.4,0.4l0.2,0.2
							c0.1,0.1,0.2,0.2,0.2,0.3c0.3,0.4,0.2,1.1-0.1,1.4L66,73.8c-0.1,0.2-0.4,0.2-0.6,0.1l0,0l0,0l-0.8-0.8h0.6
							c-0.6,0.5-1.1,1.1-1.4,1.7c-0.1,0.1-0.1,0.3-0.1,0.4s0,0.1,0,0.1s0,0-0.1,0l0,0c0.1,0,0.2-0.2,0.4-0.3c0.6-0.5,1.2-1,1.8-1.5
							c0.7-0.5,1.5-0.9,2.4-1c1,0,1.8,0.4,2.4,1c0.6,0.6,1.2,1.2,1.5,2.1c0.3,0.8,0.3,1.8,0,2.5c-0.1,0.4-0.3,0.8-0.5,1.1
							C71.8,79.6,71.8,79.9,72,80.1L72,80.1z M71.6,80.5c-0.4-0.3-0.5-1-0.2-1.4c0.2-0.3,0.3-0.7,0.4-1c0.2-0.7,0.2-1.4-0.1-2.1
							c-0.3-0.6-0.7-1.2-1.3-1.7c-0.5-0.5-1.2-0.8-1.8-0.7c-0.6,0-1.3,0.4-1.9,0.8c-0.6,0.4-1.2,1-1.8,1.5c-0.2,0.1-0.3,0.3-0.6,0.4
							c-0.1,0.1-0.3,0.1-0.5,0.1s-0.5-0.1-0.6-0.3c-0.2-0.2-0.4-0.7-0.3-1c0-0.3,0.2-0.5,0.3-0.7c0.4-0.7,1-1.4,1.7-1.9l0,0
							c0.2-0.1,0.4-0.1,0.6,0l0.8,0.8l-0.7,0.1l1.3-1.7c0.2-0.2,0.2-0.4,0.1-0.5l-0.1-0.1l-0.2-0.2l-0.4-0.4l-0.7-0.7
							c-0.2-0.2-0.4-0.2-0.6-0.2c-0.1,0-0.1,0-0.2,0.1l-0.2,0.2l-0.4,0.3l-0.8,0.7c-0.4,0.3-0.9,0.3-1.3,0.1
							c-0.2-0.1-0.4-0.3-0.5-0.3c-0.1-0.1-0.2-0.1-0.3-0.1c-0.3,0-0.5,0.1-0.6,0.3l-0.6,0.8c-0.2,0.3-0.2,0.4-0.1,0.7
							c0.1,0.2,0.4,0.4,0.6,0.7c0.3,0.3,0.5,0.8,0.3,1.3c-0.1,0.3-0.3,0.6-0.3,0.9c-0.4,1.3-0.2,2.7,0.6,3.7c0.4,0.5,1,0.9,1.5,1.1
							c0.6,0.2,1.2,0.1,1.8-0.1c0.6-0.3,1.1-0.7,1.6-1.1l0.8-0.7c0.3-0.2,0.5-0.5,0.9-0.7c0.2-0.1,0.5-0.2,0.9,0
							c0.2,0.1,0.2,0.2,0.3,0.3c0.1,0.1,0.1,0.3,0.2,0.4c0,0.6-0.2,0.9-0.4,1.3c-0.4,0.6-1,1.2-1.5,1.6c-0.2,0.2-0.5,0.2-0.6,0
							l-0.8-0.8l0.7-0.1c-0.4,0.5-0.7,1-1.1,1.5c-0.2,0.3-0.3,0.4-0.3,0.5c0,0.2,0.1,0.2,0.3,0.5l0.7,0.6l0.3,0.3l0.2,0.2l0.1,0.1
							c0.1,0.1,0.3,0.1,0.5,0c0,0,0.1,0,0.1-0.1l0.2-0.1l0.3-0.3l0.7-0.6c0.2-0.3,0.7-0.5,1.1-0.4c0.2,0,0.4,0.1,0.6,0.2
							c0.1,0.1,0.2,0.1,0.3,0.2l0.1,0.1c0.2,0.1,0.4,0.1,0.6,0c0.1,0,0.2-0.1,0.2-0.2l0.3-0.4l0.5-0.7c0.1-0.2,0.1-0.4,0-0.5
							L72.2,81L72,80.8L71.6,80.5L71.6,80.5z"/>
					</g>
				</g>
			</g>
			<g>
				<path d="M75.9,63.2c1.2,1.2,2.2,2.6,3,4.1c0.4,0.8,0.7,1.6,1.1,2.3c0.4,0.8,0.8,1.5,1.3,2.2s0.9,1.4,1.3,2.2
					c0.4,0.7,0.8,1.5,1.1,2.3s0.6,1.6,0.7,2.5c0.1,0.4,0.1,0.9,0.1,1.3s-0.1,0.9-0.4,1.3L84,81.3c0.2-0.4,0.1-0.8,0-1.2
					c-0.1-0.4-0.2-0.8-0.3-1.2c-0.3-0.8-0.6-1.5-0.9-2.3c-0.6-1.5-1.3-3-2-4.6c-0.3-0.8-0.7-1.5-1.1-2.3c-0.5-0.7-1-1.4-1.5-2
					C77.3,66.4,76.5,64.9,75.9,63.2L75.9,63.2z"/>
			</g>
			<g>
				<path d="M88.8,68.9l0.9-0.6l-0.3-0.4l-1.1,0.4c-0.3-0.3-0.6-0.7-0.9-1l-1.8-2.2l-0.9-1.2h-0.2L82.6,66l0.4,0.5l0.7-0.6l2.1,2.5
					c0.3,0.3,0.6,0.7,0.8,1l-0.8,0.9l0.3,0.4l1.6-1.2L88.8,68.9L88.8,68.9z"/>
				<path d="M92.2,62.5c1.5,1.8,1.2,3.3,0.1,4.1c-1.1,0.8-2.8,0.6-4.3-1.2c-1.5-1.8-1.2-3.3-0.1-4.1C89.1,60.5,90.7,60.6,92.2,62.5z
					 M91.9,66.2c0.4-0.3,0.3-0.9-1.2-2.6c-1.5-1.8-2.1-2-2.4-1.8c-0.4,0.3-0.2,0.8,1.2,2.6C91,66.2,91.6,66.4,91.9,66.2z"/>
				<path d="M97.1,59c1.5,1.8,1.2,3.3,0.1,4.1c-1.1,0.8-2.8,0.6-4.3-1.2c-1.5-1.8-1.2-3.3-0.1-4.1C93.9,57.1,95.6,57.2,97.1,59z
					 M96.8,62.7c0.4-0.3,0.3-0.9-1.2-2.6c-1.5-1.8-2.1-2-2.4-1.8c-0.4,0.3-0.2,0.8,1.2,2.6C95.8,62.7,96.4,63,96.8,62.7z"/>
			</g>
			<g>
				<path d="M57.8,88.8c1.6,1.4,1.5,2.8,0.7,3.7c-0.9,0.9-2.4,0.9-4-0.5c-1.6-1.4-1.6-2.8-0.7-3.7C54.7,87.5,56.2,87.4,57.8,88.8z
					 M58,92.2c0.3-0.3,0.1-0.8-1.4-2.2c-1.6-1.4-2.1-1.5-2.4-1.3c-0.3,0.3-0.1,0.8,1.5,2.2C57.2,92.3,57.8,92.4,58,92.2z"/>
			</g>
			<g>
				<path d="M53.7,92.9c1.8,0.9,2.3,2.4,1.9,3.5c-0.4,1.2-1.5,1.7-3.3,0.8s-2.3-2.3-1.9-3.5S51.9,91.9,53.7,92.9z M55.2,96.1
					c0.1-0.4-0.2-0.9-2-1.8c-1.8-0.9-2.3-0.8-2.4-0.5c-0.1,0.4,0.2,0.8,2,1.7C54.6,96.6,55.1,96.5,55.2,96.1z"/>
			</g>
			<g>
				<path d="M47.7,97.1l0.2-0.1l1.4,0.7L52,99c0.7,0.3,1.3,0.6,2,0.9l-0.9,1.8c-0.7-0.3-1.3-0.7-2-1L48,99.3l-0.3,0.8l-0.6-0.3
					L47.7,97.1z M53.9,98.7l0.5,0.2l-1.9,3.7l-0.5-0.2l0.3-1.2l0.9-1.6L53.9,98.7z"/>
			</g>
		</g>
		<g>
			<g>
				<path class="st4" d="M84.4,52.1c0,0,4.2,18.4,4.7,20s0.3,5.5,0.2,7s0.8,6.7,2.4,9.9c1.6,3.2,4.1,4.2,5.1,6.5s9,23.1,9,23.1
					s2.8-0.1,3.9-1.1c1.1-1,6.9-3.2,8.9-3.8c2.1-0.6,4.6-1.4,5.8-2.5s6.1-2.3,7.2-3.3c1-1,2.3-0.1,1.7-2.3s-12.9-31.4-12.9-31.4
					s-0.7-6.2-1.5-8.4c-0.8-2.2-6.2-20.4-6.2-20.4s-2.9,0.9-4.7,1.5S97.8,49.1,95.5,49C93.2,49,84.4,52.1,84.4,52.1z"/>
				<path d="M84.7,52.2C84.7,52.3,84.7,52.2,84.7,52.2l0.1,0.3l0.1,0.5l0.3,1.1l0.5,2.2l1,4.3l2.1,8.6l0.5,2.1
					c0.1,0.3,0.2,0.7,0.3,1.1s0.1,0.8,0.1,1.1c0.1,1.5,0.1,3,0,4.5v1.1c0,0.3,0,0.7,0.1,1c0.1,0.7,0.2,1.4,0.3,2.2
					c0.3,1.4,0.6,2.8,1.1,4.2c0.5,1.4,1.1,2.7,2,3.8c0.8,1.1,2,2.1,3,3.3c0.5,0.6,0.9,1.3,1.2,2l0.8,2.1l1.6,4.1l6.3,16.6l-0.3-0.2
					c0.6,0,1.3-0.1,2-0.3c0.6-0.1,1.3-0.4,1.7-0.7c0.6-0.5,1.2-0.8,1.8-1.1s1.3-0.6,1.9-0.8c1.3-0.5,2.5-1,3.8-1.5s2.6-0.8,3.9-1.2
					c1.3-0.5,2.5-1,3.5-1.9c1.2-0.8,2.5-1.2,3.8-1.7c0.6-0.2,1.3-0.5,1.9-0.7c0.3-0.1,0.6-0.3,0.9-0.4c0.1-0.1,0.3-0.2,0.4-0.3
					c0.1-0.1,0.3-0.2,0.5-0.3c0.3-0.2,0.7-0.3,1-0.4c0.3-0.1,0.3-0.2,0.3-0.5c0-0.6-0.3-1.2-0.5-1.9c-2-5.1-4.1-10.1-6.2-15.1
					l-6.4-15l0,0v-0.1c-0.3-2.4-0.7-4.9-1.2-7.3c-0.7-2.3-1.6-4.7-2.4-7c-0.8-2.4-1.5-4.7-2.2-7.1s-1.3-4.8-1.9-7.2l0,0L113,46
					l-3.5,1.1c-0.6,0.2-1.1,0.4-1.8,0.5c-0.6,0.2-1.2,0.3-1.8,0.4c-2.4,0.5-4.8,0.9-7.2,1.2c-0.6,0.1-1.2,0.1-1.8,0.2
					s-1.3,0-1.8,0.1c-1.2,0.1-2.3,0.4-3.5,0.7c-1.2,0.3-2.3,0.7-3.5,1l-1.7,0.6l-0.9,0.3l-0.4,0.1L84.7,52.2l-0.1,0.1
					C84.6,52.4,84.7,52.3,84.7,52.2L84.7,52.2z M84.2,51.9c0.1-0.1,0.2-0.1,0.2-0.2h0.1l0.2-0.1l0.4-0.1l0.9-0.3l1.7-0.6
					c1.2-0.4,2.3-0.7,3.5-1.1c1.2-0.3,2.4-0.6,3.6-0.8c0.7,0,1.2,0,1.8-0.1s1.2-0.1,1.8-0.2c2.4-0.3,4.8-0.8,7.1-1.3
					c0.6-0.1,1.2-0.3,1.7-0.4c0.5-0.2,1.1-0.4,1.7-0.6l3.5-1.1l0.4-0.1l0.2,0.4l0,0c0.8,2.3,1.6,4.7,2.3,7.1s1.4,4.8,2.1,7.1l1,3.6
					l0.5,1.8c0.2,0.6,0.4,1.2,0.5,1.8c0.6,2.5,0.9,4.9,1.2,7.4V74l6.3,15.1c2.1,5,4.2,10,6.2,15.1c0.2,0.6,0.5,1.3,0.6,2.1
					c0,0.2,0,0.4-0.1,0.6c-0.1,0.2-0.3,0.4-0.5,0.5c-0.4,0.1-0.7,0.2-0.9,0.3c-0.1,0.1-0.2,0.2-0.4,0.3s-0.3,0.2-0.5,0.3
					c-0.3,0.2-0.6,0.3-1,0.5c-0.6,0.3-1.3,0.5-1.9,0.7c-1.3,0.5-2.6,0.9-3.6,1.6c-1,0.9-2.4,1.5-3.7,2s-2.6,0.8-3.9,1.3
					c-1.3,0.4-2.5,0.9-3.8,1.4c-0.6,0.3-1.2,0.5-1.9,0.8c-0.6,0.3-1.2,0.6-1.7,1c-0.6,0.5-1.3,0.7-2,0.9s-1.4,0.3-2.1,0.3h-0.2
					l-0.1-0.2l-6.5-16.5L97.3,98l-0.8-2c-0.3-0.7-0.6-1.2-1.1-1.8c-0.9-1.1-2.1-2-3-3.3c-1-1.2-1.6-2.6-2.1-4.1
					c-0.5-1.4-0.8-2.9-1.1-4.4c-0.1-0.7-0.3-1.5-0.3-2.2c0-0.4-0.1-0.8-0.1-1.2l0.1-1.1c0.1-1.5,0.1-2.9,0-4.4
					c0-0.4-0.1-0.7-0.1-1.1c-0.1-0.3-0.2-0.7-0.3-1L88,69.2l-2-8.6l-1-4.3l-0.5-2.2L84.3,53l-0.1-0.5l-0.1-0.3
					C84.2,52.4,84.1,52.1,84.2,51.9L84.2,51.9z"/>
			</g>
			<g>
				<path class="st1" d="M128.6,106.5c-0.1-0.2-5.5-16.4-6.9-18.9c-3.6-6.8-4.4-9.4-5.7-15c-1.6-6.6-6.8-23.7-6.9-23.9l1.7-0.6
					c0.1,0.2,5.3,17.3,6.9,24c1.3,5.5,2.1,7.9,5.5,14.5c1.4,2.7,6.8,18.6,7,19.2L128.6,106.5z"/>
				<path d="M128.5,106.7L128.5,106.7c-0.1-0.1-0.2-0.2-0.2-0.4l-0.1-0.2l-0.2-0.5l-0.3-0.9l-0.6-1.8l-1.3-3.6
					c-0.9-2.4-1.7-4.8-2.6-7.2c-0.4-1.2-0.9-2.4-1.4-3.5s-1.2-2.2-1.7-3.4c-1.2-2.3-2.2-4.6-3-7.1c-0.8-2.4-1.3-5-1.9-7.4
					c-0.6-2.5-1.3-4.9-2-7.4c-1.4-4.9-2.8-9.8-4.3-14.7l-0.1-0.2l0.2-0.1l1.7-0.6l0.2-0.1l0.1,0.2c1.5,4.9,2.9,9.8,4.4,14.6
					c0.7,2.4,1.4,4.9,2.1,7.4c0.7,2.5,1.2,5,2,7.4s1.9,4.7,3,7c0.6,1.1,1.2,2.2,1.7,3.4c0.5,1.2,0.9,2.4,1.4,3.6
					c1.8,4.8,3.4,9.6,5,14.4l0.1,0.2l-0.2,0.1C129.7,106.3,129.1,106.5,128.5,106.7z M128.7,106.3c0.5-0.2,1-0.5,1.5-0.7l-0.1,0.3
					c-1.7-4.8-3.4-9.6-5.1-14.4c-0.4-1.2-0.9-2.4-1.4-3.5c-0.5-1.2-1.1-2.2-1.7-3.4c-1.1-2.3-2.2-4.6-3-7.1c-0.8-2.4-1.3-5-1.9-7.4
					c-0.6-2.5-1.3-4.9-2-7.4c-1.4-4.9-2.9-9.8-4.4-14.6l0.3,0.1l-1.7,0.6l0.1-0.3l4.4,14.6c0.7,2.4,1.4,4.9,2.1,7.4
					c0.7,2.5,1.2,5,2,7.4s1.8,4.7,3,7c0.6,1.2,1.2,2.2,1.7,3.4c0.5,1.2,0.9,2.4,1.4,3.6c0.9,2.4,1.7,4.8,2.5,7.2l1.2,3.6l0.6,1.8
					l0.3,0.9l0.1,0.5L128.7,106.3C128.7,106.2,128.7,106.2,128.7,106.3z"/>
			</g>
			<g>
				<path class="st1" d="M107.6,115.6c-0.1-0.4-4.5-10.1-5-12.6c-0.5-2.4-3.4-8.8-5.7-10.5c-3.4-2.5-4.5-4.6-5.5-7.9
					c-0.6-2-0.7-6.9-0.8-11.1c0-2.4-0.1-4.7-0.2-5.4c-0.6-3.1-3.6-14.2-3.6-14.3l1.7-0.5c0.1,0.5,3,11.3,3.7,14.5
					c0.2,0.9,0.2,3,0.3,5.7c0.1,3.7,0.2,8.8,0.7,10.6c1,3,1.8,4.7,4.9,6.9c2.7,2.1,5.8,8.9,6.4,11.6c0.5,2.5,5,12.3,5,12.4
					L107.6,115.6z"/>
				<path d="M107.5,115.8L107.5,115.8c-0.1-0.1-0.2-0.3-0.2-0.4l-0.1-0.2l-0.2-0.5l-0.4-1l-0.9-1.9c-0.6-1.3-1.1-2.5-1.7-3.8
					c-0.5-1.3-1.1-2.6-1.5-3.9c-0.1-0.3-0.2-0.7-0.3-1s-0.2-0.6-0.3-1c-0.2-0.6-0.5-1.3-0.7-1.9c-0.5-1.3-1.1-2.5-1.8-3.7
					S98,94.1,97,93.2c-0.4-0.4-1.1-0.8-1.6-1.3s-1-1-1.5-1.5c-1-1.1-1.7-2.3-2.2-3.7c-0.3-0.7-0.5-1.3-0.7-2s-0.3-1.4-0.4-2.1
					c-0.2-1.4-0.2-2.8-0.3-4.2c-0.1-2.8-0.1-5.6-0.2-8.4c0-0.7,0-1.4-0.2-2c-0.1-0.7-0.3-1.4-0.4-2c-0.3-1.4-0.7-2.7-1-4.1l-2.1-8.1
					l-0.1-0.2l0.2-0.1l1.7-0.5l0.2-0.1l0.1,0.2l2.1,8.1l1,4.1l0.5,2c0.2,0.7,0.2,1.4,0.2,2.1c0.1,2.8,0.1,5.6,0.3,8.3
					c0.1,1.4,0.1,2.8,0.3,4.1c0.1,0.7,0.2,1.4,0.4,2c0.2,0.7,0.4,1.3,0.7,1.9c0.5,1.3,1.3,2.4,2.3,3.3c0.5,0.5,1,0.9,1.6,1.3
					c0.3,0.2,0.6,0.5,0.8,0.7c0.2,0.3,0.5,0.5,0.7,0.8c1.8,2.2,3,4.8,4.1,7.4c1.5,5.4,3.7,10.4,5.9,15.6l0.1,0.2l-0.2,0.1
					C108.8,115.4,108.1,115.6,107.5,115.8z M107.7,115.4c0.5-0.2,1-0.4,1.5-0.6l-0.1,0.3c-1.1-2.5-2.3-5.1-3.3-7.6
					c-0.5-1.3-1-2.6-1.5-3.9c-0.2-0.7-0.3-1.4-0.5-2c-0.2-0.7-0.4-1.3-0.7-1.9c-1.1-2.5-2.3-5-4-7.1c-0.4-0.5-0.9-1-1.4-1.4
					c-0.6-0.4-1.1-0.9-1.6-1.4c-1-1-1.9-2.2-2.4-3.5c-0.3-0.7-0.5-1.3-0.7-2s-0.3-1.4-0.4-2.1c-0.1-1.4-0.2-2.8-0.2-4.2
					c-0.1-2.8-0.1-5.6-0.2-8.3c0-1.4-0.3-2.7-0.7-4.1l-1-4l-2.1-8.1l0.3,0.2L87,54.2l0.2-0.3l2.1,8.1l1,4.1c0.2,0.7,0.3,1.4,0.5,2
					c0.2,0.7,0.2,1.4,0.2,2.1c0.1,2.8,0.1,5.6,0.3,8.3c0.1,1.4,0.1,2.8,0.3,4.1c0.1,0.7,0.2,1.4,0.4,2c0.2,0.7,0.4,1.3,0.7,1.9
					c0.5,1.3,1.2,2.4,2.1,3.4c0.4,0.5,0.9,1,1.5,1.4c0.5,0.5,1.1,0.8,1.6,1.3c1,1.1,1.8,2.3,2.5,3.5s1.3,2.5,1.8,3.8
					c0.3,0.6,0.5,1.3,0.7,2c0.1,0.3,0.2,0.7,0.3,1s0.2,0.6,0.3,1c0.4,1.3,0.9,2.6,1.4,3.9l1.6,3.9l0.8,1.9l0.4,1l0.2,0.5l0.1,0.2
					C107.7,115.3,107.7,115.3,107.7,115.4z"/>
			</g>
			<g>
				<path class="st2" d="M118.7,77.5c-0.3,5.9-6.3,9.9-13.1,11.3c-12.3,2.5-15.2-3-14.9-8.9s9.2-14,16.1-13.6
					C113.6,66.6,119,71.7,118.7,77.5z"/>
				<path d="M119,77.5c-0.1,1.7-0.6,3.4-1.6,4.9s-2.3,2.7-3.7,3.6c-2.9,1.9-6.2,3-9.6,3.5c-1.7,0.3-3.4,0.4-5.1,0.2
					c-1.7-0.1-3.5-0.5-5-1.4s-2.6-2.4-3.2-4c-0.5-1.7-0.6-3.4-0.4-5.1c0.3-1.7,1.1-3.3,2-4.7c1-1.4,2.1-2.7,3.3-3.8
					c2.5-2.2,5.5-4.2,9-4.7s7,0.6,9.8,2.6c1.4,1,2.6,2.4,3.4,3.9C118.7,74.1,119.1,75.8,119,77.5L119,77.5z M118.4,77.5
					c0.1-3.3-1.7-6.4-4.3-8.2c-1.3-0.9-2.8-1.6-4.4-2c-1.6-0.4-3.2-0.6-4.8-0.4c-3.2,0.4-6.2,2.2-8.7,4.3c-1.3,1.1-2.4,2.3-3.3,3.7
					c-0.9,1.4-1.7,2.9-1.9,4.5s-0.1,3.3,0.5,4.8c0.5,1.5,1.6,2.8,3,3.6c1.4,0.8,3,1.1,4.7,1.2c0.4,0,0.8,0,1.2,0s0.8,0,1.2-0.1
					c0.8-0.1,1.6-0.2,2.4-0.3c3.3-0.5,6.4-1.5,9.2-3.3C115.9,83.6,118.2,80.8,118.4,77.5L118.4,77.5z"/>
			</g>
			<g>
				<path class="st3" d="M117.3,77.6c-0.3,5.3-5.7,8.9-11.8,10.1c-11.1,2.2-13.7-2.7-13.4-8s8.3-12.6,14.5-12.2
					S117.6,72.3,117.3,77.6z"/>
				<path d="M117.4,77.6c-0.1,1.5-0.6,3-1.5,4.3s-2,2.3-3.3,3.2c-2.5,1.7-5.5,2.7-8.5,3.1c-1.5,0.2-3,0.4-4.6,0.2
					c-1.5-0.1-3.1-0.4-4.4-1.2c-1.3-0.8-2.3-2.1-2.8-3.5c-0.5-1.5-0.6-3-0.4-4.5c0.2-1.5,0.9-2.9,1.8-4.2c0.9-1.2,1.9-2.4,3-3.4
					c2.3-2,4.9-3.7,8-4.2c3.1-0.4,6.2,0.5,8.7,2.3C116,71.5,117.6,74.5,117.4,77.6L117.4,77.6z M117.1,77.6c0.1-3-1.5-5.9-3.9-7.6
					c-1.2-0.9-2.6-1.5-4-1.9s-2.9-0.6-4.4-0.3c-2.9,0.4-5.6,2-7.9,4c-1.1,1-2.1,2.1-3,3.3c-0.8,1.2-1.5,2.6-1.7,4.1s-0.1,3,0.4,4.4
					s1.4,2.6,2.7,3.4c1.3,0.7,2.8,1,4.3,1.1s3,0,4.5-0.3c2.9-0.5,5.9-1.4,8.4-3C114.9,83.1,117,80.6,117.1,77.6L117.1,77.6z"/>
			</g>
			<g>
				<g>
					<path class="st2" d="M97.6,82.8l-1.1,0.4c-0.4,0.1-0.8-0.1-0.9-0.5L95,81c-0.1-0.4,0.1-0.8,0.5-1l1.1-0.4
						c0.3-0.1,0.6-0.5,0.5-0.9c-0.2-1-0.2-2-0.2-2.8c0-0.3,0.2-0.6,0.5-0.7l2.7-1c0.4-0.1,0.8,0.1,0.9,0.5l0.5,1.6
						c0.1,0.4-0.1,0.8-0.5,1l0,0c-0.3,0.1-0.5,0.4-0.5,0.8s0.1,0.9,0.3,1.4c0.3,1,0.6,1.3,1.2,1.1c0.6-0.2,0.5-1.2,0.5-2v-1.2
						c-0.1-1.9,0.1-4.2,3-5.2c2.3-0.8,4.1,0,5.3,2c0.2,0.3,0.5,0.5,0.9,0.3l1.1-0.4c0.4-0.1,0.8,0.1,0.9,0.5l0.6,1.8
						c0.1,0.4-0.1,0.8-0.5,1l-1.1,0.4c-0.3,0.1-0.5,0.5-0.5,0.8c0.2,1.1,0.2,2.1,0.1,2.8c0,0.3-0.2,0.6-0.5,0.7l-2.6,0.9
						c-0.4,0.1-0.8-0.1-0.9-0.5l-0.5-1.6c-0.1-0.4,0.1-0.8,0.5-1h0.1c0.3-0.1,0.5-0.5,0.5-0.8s-0.1-0.8-0.3-1.3
						c-0.4-1.1-0.7-1.4-1.2-1.2s-0.5,0.8-0.4,1.7l0.1,1.2c0.1,2,0,4.4-3.1,5.5c-2.8,1-4.3,0-5.4-1.9C98.3,82.9,97.9,82.7,97.6,82.8z
						"/>
					<g>
						<path d="M97.7,83.1c-0.4,0.2-0.7,0.3-1.2,0.5c-0.3,0.1-0.6,0-0.8-0.2s-0.4-0.5-0.4-0.7l-0.4-1.2c-0.1-0.2-0.1-0.3-0.2-0.7
							c0-0.3,0.1-0.6,0.3-0.9c1-0.7,1.9-0.6,1.7-1.1c-0.1-0.7-0.3-1.7-0.3-2.5c0-0.2,0-0.4,0.1-0.8c0.1-0.3,0.3-0.6,0.6-0.7l1.2-0.4
							l1.2-0.4l0.3-0.1l0.1-0.1c0.1,0,0.2-0.1,0.3-0.1c0.4,0,0.7,0.1,1,0.3c0.1,0.1,0.2,0.3,0.3,0.4c0.1,0.2,0.1,0.2,0.1,0.3
							l0.2,0.6l0.2,0.6V76c0,0.1,0,0.2,0.1,0.2c0,0.2,0,0.3,0,0.5c-0.1,0.3-0.3,0.6-0.6,0.8c-0.2,0.1-0.2,0.1-0.2,0.1
							s-0.1,0-0.1,0.1v0.1c0,0,0,0.1,0,0.2c0,0.2,0.1,0.4,0.1,0.6c0.1,0.7,0.5,1.7,0.7,1.5c0.1,0,0.1,0,0.2-0.1
							c0-0.1,0.1-0.3,0.1-0.5c0-0.4,0-0.8,0-1.2c0-0.8-0.1-1.7,0-2.5c0.1-0.9,0.4-1.8,0.9-2.5c0.6-0.7,1.4-1.2,2.2-1.5
							s1.7-0.5,2.6-0.3c0.9,0.1,1.7,0.6,2.3,1.2c0.3,0.3,0.6,0.7,0.8,1c0.1,0.2,0.2,0.3,0.3,0.4s0.2,0.1,0.4,0
							c0.4-0.1,0.7-0.3,1.2-0.4c0.3-0.1,0.6,0,0.8,0.2s0.3,0.5,0.4,0.7l0.4,1.2c0.1,0.2,0.1,0.3,0.2,0.7c0,0.3-0.1,0.6-0.2,0.8
							c-0.2,0.2-0.5,0.3-0.7,0.4l-0.6,0.2L113,78c-0.1,0-0.1,0.1-0.2,0.1c-0.1,0.1-0.2,0.2-0.1,0.4c0.1,0.8,0.2,1.7,0.2,2.5
							c0,0.2,0,0.4-0.1,0.7c-0.1,0.3-0.3,0.5-0.6,0.6l-1.2,0.4l-1.2,0.4l-0.3,0.1c-0.1,0.1-0.3,0.1-0.5,0.1c-0.3,0-0.6-0.2-0.8-0.5
							s-0.2-0.5-0.3-0.7l-0.2-0.6l-0.2-0.6c-0.1-0.3-0.1-0.6,0.1-0.9c0.1-0.3,0.4-0.5,0.7-0.6c0.1,0,0.1-0.1,0.2-0.2
							c0.1-0.1-0.1-0.6-0.2-0.9c-0.1-0.4-0.2-0.8-0.4-1.1c-0.1-0.1-0.2-0.3-0.2-0.3s-0.1,0-0.2,0c0,0,0,0-0.1,0.2c0,0.1,0,0.3,0,0.5
							l0.1,1.2c0,0.8,0.1,1.7,0,2.6s-0.4,1.8-1.1,2.5c-0.6,0.7-1.4,1.2-2.2,1.5s-1.7,0.5-2.6,0.4c-0.9-0.1-1.8-0.5-2.4-1.2
							c-0.3-0.3-0.5-0.7-0.8-1.1c-0.1-0.2-0.2-0.3-0.3-0.4C97.9,83.1,97.8,83.1,97.7,83.1L97.7,83.1z M97.5,82.6
							c0.3-0.1,0.6-0.1,0.9,0.1c0.3,0.1,0.4,0.5,0.5,0.6c0.2,0.3,0.4,0.7,0.7,0.9c0.5,0.5,1.2,0.9,2,0.9c0.7,0,1.5-0.1,2.3-0.4
							c0.7-0.3,1.4-0.7,1.9-1.3c1-1.2,0.9-2.8,0.8-4.4c0-0.4-0.1-0.8-0.1-1.3c0-0.2,0-0.5,0.1-0.7c0-0.3,0.3-0.7,0.6-0.8
							c0.3-0.1,0.7-0.2,1,0s0.4,0.4,0.6,0.7c0.2,0.4,0.3,0.8,0.4,1.3l0.1,0.6c0.1,0.2,0.1,0.6-0.1,0.8c-0.1,0.3-0.4,0.5-0.7,0.6
							c-0.1,0-0.2,0.1-0.2,0.2s-0.1,0.2,0,0.3l0.2,0.6l0.2,0.6c0.1,0.2,0.1,0.4,0.2,0.5c0.1,0.1,0.1,0.1,0.2,0.2h0.1l0.3-0.1
							l1.2-0.4l1.2-0.4c0.1,0,0.2-0.1,0.2-0.2s0-0.3,0.1-0.5c0-0.8,0-1.6-0.1-2.5c0-0.3,0.1-0.6,0.3-0.8c0.1-0.1,0.2-0.2,0.4-0.2
							l0.3-0.1l0.6-0.2c0.2-0.1,0.3-0.1,0.4-0.2c0.1-0.1,0.1-0.2,0.1-0.4c0-0.1-0.1-0.4-0.2-0.5l-0.4-1.2c-0.1-0.2-0.1-0.3-0.2-0.4
							c-0.1-0.1-0.2-0.1-0.4-0.1l-1.1,0.4c-0.2,0.1-0.6,0.1-0.8-0.1c-0.3-0.1-0.4-0.4-0.5-0.5c-0.2-0.3-0.5-0.6-0.7-0.9
							c-0.5-0.6-1.2-0.9-2-1.1c-0.8-0.1-1.5,0-2.3,0.3c-0.7,0.3-1.4,0.7-1.9,1.3c-0.5,0.6-0.7,1.4-0.7,2.1c-0.1,0.8,0,1.6,0.1,2.4
							c0,0.4,0.1,0.8,0.1,1.3c0,0.2,0,0.5-0.1,0.8s-0.4,0.6-0.7,0.7s-0.8,0.1-1-0.2c-0.3-0.2-0.4-0.5-0.5-0.7
							c-0.2-0.4-0.3-0.8-0.4-1.3c0-0.2-0.1-0.4-0.1-0.6c0-0.1,0-0.3,0-0.4c0-0.2,0.1-0.3,0.2-0.5c0.1-0.1,0.2-0.3,0.3-0.4
							s0.4-0.2,0.3-0.2c0.1,0,0.1-0.1,0.1-0.2v-0.1c0,0,0,0,0-0.1v-0.1l-0.2-0.6l-0.2-0.6l-0.1-0.3c0,0,0-0.1-0.1-0.1
							c0,0-0.1-0.1-0.2-0.1l0,0l-0.1,0.1l-0.3,0.1l-1.2,0.4l-1.1,0.4c-0.2,0.1-0.2,0.1-0.2,0.6c0,0.8,0.1,1.5,0.2,2.5
							c0,0.3-0.1,0.7-0.3,0.9c-0.1,0.1-0.3,0.2-0.4,0.3L96.8,80l-0.6,0.2l-0.3,0.1c0,0-0.1,0-0.1,0.1c-0.2,0.2-0.1,0.3,0,0.8
							l0.3,1.2c0.1,0.2,0.1,0.3,0.2,0.4c0.1,0.1,0.2,0.1,0.3,0.1C96.7,82.9,97.1,82.7,97.5,82.6L97.5,82.6z"/>
					</g>
				</g>
			</g>
			<g>
				<g>
					<path d="M112.7,91.8l-0.5,0.3l0.4,0.6l-2.3,1.3c-0.3,0.2-0.6,0.3-1,0.5l-0.6-0.7l-0.4,0.2l1.1,1.9l0.1,0.3l0,0l0.4,0.7l0.4-0.2
						l-0.2-0.9c0.3-0.2,0.6-0.4,0.9-0.5l2.1-1.1l1.1-0.5v-0.1L112.7,91.8z"/>
					<path d="M113.8,100c-1.8,0.6-2.9,0-3.3-1c-0.3-1,0.2-2.2,2-2.8s2.9,0,3.3,1C116.1,98.2,115.6,99.4,113.8,100z M111,98.8
						c0.1,0.3,0.6,0.4,2.4-0.2c1.8-0.6,2.1-1,2-1.3s-0.6-0.4-2.4,0.2C111.2,98.1,110.9,98.5,111,98.8z"/>
					<path d="M114.5,104.3c-1.9,0.3-2.9-0.5-3.1-1.5c-0.2-1.1,0.5-2.1,2.4-2.4c1.9-0.3,2.9,0.5,3.1,1.5
						C117.1,102.9,116.4,104,114.5,104.3z M111.9,102.7c0.1,0.3,0.5,0.5,2.4,0.2c1.8-0.3,2.3-0.6,2.2-1s-0.5-0.5-2.4-0.2
						C112.3,102,111.9,102.3,111.9,102.7z"/>
				</g>
			</g>
			<g>
				<path d="M97.5,56.3l-0.4,0.1L96,53.2l0.4-0.1L97,54l0.5,1.4V56.3z M101.9,53.8v0.1l-1.2,0.3l-2.2,0.7c-0.5,0.2-1.1,0.4-1.7,0.6
					L96.3,54c0.6-0.2,1.1-0.4,1.7-0.5l2.5-0.8l-0.3-0.6l0.5-0.2L101.9,53.8z"/>
				<path d="M100.8,60c-1.8,0.5-2.9-0.2-3.2-1.3c-0.3-1,0.4-2.1,2.2-2.6s2.9,0.2,3.2,1.2C103.2,58.4,102.6,59.5,100.8,60z M98,58.6
					c0.1,0.3,0.6,0.5,2.4,0c1.8-0.5,2.2-0.8,2.1-1.1c-0.1-0.3-0.6-0.4-2.4,0C98.3,57.9,98,58.3,98,58.6z"/>
				<path d="M101.3,64.3c-1.9,0.2-2.9-0.7-3-1.7c-0.1-1.1,0.7-2.1,2.6-2.2c1.9-0.2,2.9,0.6,3,1.7C103.9,63.1,103.2,64.1,101.3,64.3z
					 M98.8,62.5c0,0.3,0.5,0.5,2.4,0.4c1.9-0.2,2.3-0.5,2.3-0.8s-0.5-0.5-2.4-0.3C99.2,61.9,98.7,62.2,98.8,62.5z"/>
			</g>
			<g>
				<path d="M115.4,88.4l0.3,0.5l0.1,0.1l0.2,0.5l-0.2,0.1l-0.6-1.1L115.4,88.4z M118.8,87.2l0.1,0.2l-1.5,0.8l-1.9,1l-0.1-0.2
					L118.8,87.2z M118.8,87.3l0.2,0.4l-2.4,2.7l-0.1-0.2l3.5-0.4l0.1,0.3l-4,0.5l-0.1-0.2L118.8,87.3z M116.8,91.1l0.4,0.5l0.1,0.1
					l0.2,0.7l-0.2,0.1l-0.7-1.3L116.8,91.1z M118.3,90.8l1.8-0.9l0.2,0.5c-0.5,0.2-1,0.5-1.6,0.8l-0.2,0.1c-0.5,0.3-1,0.5-1.5,0.8
					l-0.2-0.5C117.3,91.3,117.8,91,118.3,90.8z M118.6,86.8l0.3,0.6l-0.3,0.1v-0.1l-0.2-0.6H118.6z M120.2,90.1l0.3,0.7l-0.2,0.1
					l-0.4-0.6l0,0L120.2,90.1z"/>
				<path d="M120.3,94.8c-1.1,0.5-2.1,0-2.5-0.7c-0.3-0.8,0-1.8,1.2-2.3c1.1-0.5,2.1,0,2.5,0.7C121.8,93.3,121.5,94.3,120.3,94.8z
					 M118.1,94c0.3,0.7,1.2,0.6,2,0.3s1.4-0.9,1.1-1.6c-0.3-0.7-1.2-0.7-2-0.3C118.4,92.6,117.8,93.3,118.1,94z"/>
				<path d="M118.8,95.5l0.3,0.5v0.1l0.1,0.6l-0.2,0.1l-0.4-1.2L118.8,95.5z M122.3,94.7l-0.1,0.3l-3.3,1.2l-0.1-0.3L122.3,94.7z
					 M122,94.7v0.4l-0.1-0.6l0.2-0.1l0.3,0.8l-2.3,3.2l-0.6,0.2l-0.1-0.2L122,94.7z M123.1,96.9l0.1,0.3l-3.6,1.3l0.2-0.4
					L123.1,96.9z M122.9,96.4l0.4,1.2l-0.2,0.1l-0.3-0.5v-0.1l-0.1-0.6L122.9,96.4z"/>
				<path d="M120.3,99.6l-0.3,0.1l-0.2-0.7l0.2-0.1L120.3,99.6L120.3,99.6z M121.8,98.9c0.6-0.2,1.1-0.3,1.7-0.5l0.2,0.5
					c-0.6,0.2-1.1,0.3-1.7,0.5l-0.2,0.1c-0.6,0.2-1.2,0.4-1.7,0.5l-0.2-0.5c0.6-0.2,1.1-0.3,1.7-0.5L121.8,98.9z M121.5,101.4
					l-1,0.3l-0.6-1.9l0.3-0.1l0.5,1.8l-0.3-0.2l1-0.1L121.5,101.4z M122.2,100.1l0.6-0.1l0.1,0.2l-1.3,0.4l-0.1-0.2l0.6-0.3
					L122.2,100.1z M122.1,100.4l-0.4-1.2l0.3-0.1l0.4,1.2L122.1,100.4z M123.1,98l0.2-0.1l0.2,0.7l-0.3,0.1v-0.1L123.1,98z M124,100
					l-0.2,0.3l-0.5-1.7l0.3-0.1l0.6,1.8l-0.9,0.3l-0.1-0.3L124,100z"/>
				<path d="M121.3,103.1l0.1,0.8l-0.2,0.1l-0.4-1.6l0.2-0.1L121.3,103.1L121.3,103.1z M122.5,102.5l0.1,0.5
					c-0.6,0.2-1.2,0.3-1.6,0.4l-0.1-0.5C121.4,102.8,121.9,102.6,122.5,102.5z M122.1,102.7l2.1-1.8l0.1,0.6l-1.9,1.5v-0.2l2.4,0.4
					l0.1,0.3l-2.7-0.5L122.1,102.7z M124,100.7l0.2-0.1l0.4,1.5l-0.2,0.1l-0.3-0.7v-0.1L124,100.7z M124.6,103.3l-0.1-0.6l0.2-0.1
					l0.3,1.2l-0.2,0.1l-0.2-0.5V103.3z"/>
			</g>
		</g>
		<g>
			<path class="st0" d="M135,93.1c0,0,1.2,4.5,7.5,10.1c3.9,3.5,5.7,7.8,5.8,9.1s4.6-5.2,4.5-7.4s4-7.6,4.6-7.6
				c0.5,0-0.6-6.7-0.7-8.4c-0.1-1.7-1.6-1.3-1.7-3.5c-0.1-2.3,0.2-3.4-0.7-4.3c-0.9-0.8-6.1-10-8-13.1s-4-5.3-7.3-6.6
				c-3.3-1.3-6-0.9-6.7-1.5c-0.7-0.7-2.1,0.3-2.1,0.3s-3.2-1.9-4.9-4.3s-4.7-5.4-6-6.6s-2.5-6.2-2.5-6.2s0.5-1.6-0.3-1.6
				s-3.7,1.1-4.8,2.3c-1.1,1.2-2.2,5.2-3.6,6.7c-1.3,1.5-5.1,6.9-6.3,8.3c-1.3,1.4-1.7,3.1-2.2,3.7s-1.5,0.5,0.2,1.3
				c1.7,0.7,3.2,2,4.2,3c1,0.9,3.8,3.4,6.3,4.8s5.9,5.4,7.3,6.6s2.4,2.3,2.9,1.8s2.2,0.7,3,1.4S133.7,90.1,135,93.1z"/>
			<g>
				<path class="st1" d="M142.3,64c3.2,2.9,5.2,7.6,5.5,8.2c2,3.5,5,8.7,5.4,9.2c0.9,0.8,0.5,1.7,0.2,2.5c-0.1,0.3-0.2,0.6-0.4,1
					c-0.1,0.2-0.1,0.4-0.1,0.5c0.2,0.2,0.4,0.5,0.5,0.9c0.1,0.2,0.4,0.5,0.6,0.7c0.4,0.5,1,1.1,1.4,1.9c0.6,1.3,1,6.6,1.2,8.2
					l-2,0.1c-0.2-3.1-0.7-6.8-1-7.5c-0.2-0.5-0.7-1-1.1-1.4c-0.9-0.9-1.3-2-1.1-3.3c0.1-0.6,0.7-1.5,0.6-2.1c0-0.4-0.5-0.6-0.7-0.9
					c-0.5-0.7-1-1.6-1.4-2.3c-1.3-2.2-2.6-4.5-3.9-6.8l-0.1-0.1c-0.2-0.2-0.3-0.6-0.4-0.9c-0.2-0.4-0.4-0.7-0.6-1.1
					c-0.5-0.9-0.9-1.7-1.5-2.5c-1.1-1.6-2.4-3.5-4.3-4.1c-2.2-0.6-4.5-1-6.7-1.2c-0.5,0-1-0.1-1.4,0c-0.3,0.1-0.5,0.2-0.8,0.2
					c-1.4,0.4-2.7-0.5-3.7-1.4c-1.9-1.7-6.4-6.1-8.3-8.3c-0.9-1-1.6-2.1-2.3-3.3c-0.5-0.9-1-2.1-1.1-3.2c0-0.8-1.4-0.8-1.9-1.2
					c-0.1-0.1-0.3-0.2-0.2-0.4l0.1-0.1c0.3-0.3,0.6-0.6,0.9-0.9l0.1-0.1c0.1,0,0.2,0,0.2,0c0.2,0.1,0.4,0.1,0.6,0.1
					c0.6,0,1.1-0.2,1.5,0.3s0.5,1.1,0.5,1.7c0,0.7,1.3,3.5,3.2,5.7c1.4,1.7,3,3.3,4.6,4.8c0.8,0.8,1.6,1.6,2.4,2.3
					c0.8,0.7,1.6,1.6,2.6,1.9c0.1,0,0.3,0.1,0.4,0.1c0.2,0,0.5,0,0.7-0.2c0-0.1,0-0.2,0.1-0.3c0.1-0.1,0.2-0.1,0.3-0.1
					c2.2,0.1,4.3,0.3,6.5,0.6c0.5,0.1,1.1,0.1,1.6,0.2c0.4,0.1,0.6,0.3,1,0.5C140.8,62.8,141.6,63.3,142.3,64z M153.4,86.3
					L153.4,86.3L153.4,86.3z M153.5,86.5L153.5,86.5L153.5,86.5z"/>
				<g>
					<path d="M142.4,63.9c1.2,1.1,2.3,2.5,3.2,3.8c0.9,1.4,1.7,2.9,2.4,4.4l0,0l2.7,4.7l1.4,2.3c0.5,0.8,0.9,1.6,1.4,2.2l0,0
						c0.3,0.3,0.5,0.6,0.6,1s0,0.8-0.1,1.2c-0.1,0.4-0.2,0.7-0.4,1c-0.1,0.3-0.2,0.7-0.3,1l-0.1-0.2c0.3,0.3,0.5,0.7,0.6,1.1v-0.1
						c0.5,0.7,1.3,1.4,1.8,2.3s0.6,1.9,0.8,2.9c0.3,1.9,0.4,3.8,0.6,5.8c0,0.1-0.1,0.2-0.2,0.2l0,0l-2,0.1c-0.1,0-0.2-0.1-0.2-0.2
						c-0.1-1.9-0.3-3.7-0.6-5.6c-0.1-0.5-0.1-0.9-0.2-1.4c-0.1-0.4-0.3-0.8-0.6-1.2c-0.3-0.4-0.6-0.7-0.9-1.1
						c-0.3-0.4-0.6-0.8-0.7-1.3v0.1c-0.3-0.3-0.5-0.6-0.5-1c-0.1-0.4,0-0.8,0.1-1.1c0.2-0.7,0.5-1.4,0.7-2V83
						c-1.5-2.2-2.7-4.4-4-6.6c-0.6-1.1-1.3-2.2-1.9-3.4c-0.5-1.2-1.1-2.3-1.8-3.4s-1.4-2.1-2.3-3.1c-0.9-0.9-1.9-1.8-3-2.3
						c-0.6-0.3-1.2-0.3-1.9-0.4l-1.9-0.3c-1.3-0.2-2.6-0.3-3.8-0.4h0.1c-0.9,0.5-2.1,0.6-3.1,0.3c-1-0.3-1.8-1.2-2.5-1.9
						c-1.5-1.4-3-2.9-4.5-4.4s-3-3-4.1-4.7c-0.6-0.9-1.1-1.8-1.6-2.7c-0.2-0.5-0.4-1-0.6-1.5c-0.2-0.5-0.2-1.1-0.3-1.5l0.2,0.1
						c-0.2,0-0.5,0-0.7,0s-0.5-0.1-0.7-0.2c-0.4-0.2-0.8-0.4-1.1-0.8c-0.1-0.1-0.1-0.2,0-0.3l0,0l0,0l1.5-1.3l-0.1,0.2
						c0.7-0.4,0.3-0.1,0.4-0.2l0,0l0,0l0,0l0,0h0.1l0.1,0.1c0.1,0,0.1,0,0.3,0c0.3,0,0.6,0,0.9,0.1c0.6,0.2,1,0.6,1.3,1.2
						c0.1,0.3,0.2,0.5,0.2,0.8c0.1,0.3,0,0.6,0.1,0.8c0.1,0.5,0.3,1,0.6,1.4c0.9,1.9,2.1,3.6,3.6,5.1c1.4,1.5,2.9,3,4.4,4.5
						c0.8,0.7,1.5,1.5,2.3,2.2c0.4,0.4,0.8,0.7,1.2,0.8c0.5,0.1,0.9,0,1.3-0.4h0.1l0,0c1.1,0,2.1,0.1,3.1,0.2s2.1,0.3,3.1,0.4
						c0.5,0.1,1,0.1,1.6,0.2c0.5,0.1,1,0.3,1.5,0.5C140.7,62.5,141.6,63.2,142.4,63.9L142.4,63.9z M142.2,64.1
						c-0.8-0.7-1.6-1.3-2.6-1.7c-0.5-0.2-1-0.4-1.5-0.5s-1-0.2-1.5-0.2c-1-0.1-2.1-0.3-3.1-0.4s-2.1-0.2-3.1-0.2h0.1
						c-0.4,0.4-1,0.6-1.6,0.5s-1.1-0.5-1.4-0.9c-0.8-0.7-1.5-1.4-2.3-2.2c-1.5-1.5-3-3-4.5-4.5s-2.8-3.3-3.7-5.2
						c-0.2-0.5-0.4-1-0.6-1.5c-0.1-0.3-0.1-0.6-0.1-0.8c0-0.2-0.1-0.5-0.2-0.7c-0.2-0.4-0.5-0.8-1-0.9c-0.2-0.1-0.5-0.1-0.7-0.1
						c-0.1,0-0.3,0-0.5-0.1c-0.1,0-0.1-0.1-0.2-0.1l-0.1-0.1l0,0l0,0l0,0l0,0c0.1-0.1-0.3,0.2,0.4-0.2c0,0,0,0,0.1,0c0,0,0,0,0,0.1
						l-0.1,0.1l-1.5,1.3v-0.3c0.3,0.3,0.6,0.5,1,0.7c0.2,0.1,0.4,0.1,0.6,0.2c0.2,0,0.4,0,0.6,0l0,0c0.1,0,0.2,0.1,0.2,0.2
						c0.1,0.6,0.1,1,0.3,1.5c0.1,0.5,0.3,1,0.6,1.4c0.4,0.9,1,1.8,1.5,2.7c1.1,1.7,2.6,3.2,4.1,4.7s2.9,3,4.5,4.4
						c0.8,0.7,1.5,1.5,2.4,1.8c0.9,0.4,2,0.2,2.9-0.2c0,0,0,0,0.1,0c1.3,0.1,2.6,0.2,3.9,0.4l1.9,0.3c0.6,0.1,1.3,0.2,1.9,0.4
						c1.2,0.5,2.2,1.4,3.1,2.3c0.9,1,1.6,2,2.3,3.1s1.3,2.2,1.8,3.4c0.6,1.1,1.3,2.2,1.9,3.4c1.3,2.2,2.6,4.5,4,6.6l0,0
						c0,0,0,0.1,0,0.2c-0.2,0.7-0.5,1.3-0.7,2c-0.1,0.3-0.1,0.7-0.1,1c0.1,0.3,0.2,0.6,0.4,0.8v0.1l0,0c0.2,0.8,1,1.5,1.6,2.2
						c0.3,0.4,0.6,0.8,0.7,1.3c0.1,0.5,0.2,0.9,0.3,1.4c0.3,1.9,0.5,3.7,0.6,5.6l-0.2-0.2l2-0.2l-0.2,0.2c-0.2-1.9-0.3-3.8-0.6-5.7
						c-0.2-0.9-0.3-1.9-0.7-2.7c-0.5-0.8-1.1-1.4-1.8-2.3c0,0,0,0,0-0.1l0,0c0-0.3-0.2-0.6-0.4-0.8l0,0c-0.1-0.1-0.1-0.1-0.1-0.2
						c0.1-0.4,0.2-0.7,0.3-1.1c0.1-0.3,0.3-0.7,0.4-1c0.1-0.3,0.2-0.6,0.1-0.9c-0.1-0.3-0.2-0.6-0.5-0.8l0,0l0,0
						c-0.6-0.8-1-1.5-1.4-2.3l-1.4-2.3l-2.7-4.7l0,0c-0.6-1.5-1.4-3-2.3-4.4C144.4,66.5,143.4,65.2,142.2,64.1L142.2,64.1z"/>
				</g>
			</g>
			<g>
				<path class="st1" d="M129.7,82.3c3,2.7,6.1,6,6.8,6.9s1.6,2.4,2.5,4c0.8,1.4,1.7,2.9,2.6,4.2c1.5,2.1,3.7,4.2,5.4,5.6
					c0.3,0.3,0.6,0.6,0.9,0.8c2,1.8,2.7,4.4,2.7,4.5l-1.9,0.5c0,0-0.6-2.2-2.1-3.6c-0.3-0.2-0.6-0.5-0.9-0.8c-1.7-1.6-4.1-3.7-5.7-6
					c-0.9-1.3-2.1-2.8-2.9-4.3c-0.9-1.5-1.4-3-2.1-3.8c-0.9-1.2-2-2.2-3-3.3c-1.5-1.5-3-3-4.6-4.2c-0.9-0.6-1.7-1.3-2.6-1.9
					c-0.7-0.5-1.5-0.8-2.2-1.3c-0.6-0.4-1.1-0.8-1.8-0.6c-0.6,0.2-1.2,0.2-1.8-0.3c-0.4-0.4-1.1-1.1-2.2-2.4
					c-1.1-1.3-2.5-2.8-3.2-3.5c-1.3-1.2-3.7-2.8-5.1-3.7c-1.5-0.9-6.9-5.6-7.5-6.1l1.3-1.5c1.6,1.4,6.1,5.2,7.2,5.9
					c1.5,0.9,4,2.6,5.4,3.9c0.8,0.7,2.2,2.3,3.4,3.7c0.7,0.8,1.4,1.6,1.8,2c0.3-0.2,0.9-0.3,1.6-0.1c1.1,0.4,2.7,1.3,3,1.6
					C125.8,78.9,127.7,80.5,129.7,82.3z"/>
				<path d="M129.8,82.2c2.1,1.9,4.1,3.8,6,5.9c1,1,1.7,2.3,2.5,3.4c0.7,1.2,1.4,2.4,2.2,3.6c0.7,1.2,1.4,2.4,2.3,3.4
					c0.9,1.1,1.9,2,2.9,3l1.6,1.4c0.5,0.5,1.1,0.9,1.5,1.5c0.9,1.1,1.6,2.4,2,3.8c0,0.1,0,0.2-0.2,0.3l0,0l0,0l-1.9,0.5l0,0
					c-0.1,0-0.2,0-0.3-0.2l0,0c-0.7-3.2-3.8-4.8-6-7.1c-1.1-1.1-2.2-2.4-3-3.7l-2.5-4.1c-0.8-1.4-1.6-2.8-2.6-4s-2.2-2.3-3.3-3.4
					s-2.3-2.2-3.5-3.3c-0.6-0.5-1.2-1.1-1.8-1.5c-0.6-0.5-1.2-1-1.9-1.3l0,0l-0.2-0.1l0,0c-0.9-0.5-1.8-1.1-2.7-1.4h0.1
					c-0.4,0.4-1.1,0.5-1.6,0.2s-0.8-0.7-1.2-1.1c-0.7-0.8-1.5-1.6-2.2-2.4s-1.5-1.6-2.2-2.4c-0.8-0.7-1.7-1.4-2.5-2
					c-0.9-0.6-1.8-1.2-2.7-1.8c-1-0.6-1.8-1.3-2.7-2c-1.7-1.4-3.4-2.8-5-4.2c-0.1-0.1-0.1-0.2,0-0.3l0,0l1.3-1.5
					c0.1-0.1,0.2-0.1,0.3,0c1.5,1.3,3,2.6,4.5,3.8c0.8,0.6,1.5,1.3,2.3,1.8s1.7,1,2.5,1.6c1.6,1.1,3.2,2.3,4.6,3.9l3.9,4.4h-0.2
					c0.4-0.2,0.9-0.3,1.4-0.2c0.5,0.1,0.8,0.3,1.2,0.5c0.8,0.4,1.5,0.8,2.2,1.3l0,0c1,0.5,1.8,1.1,2.6,1.8
					C128.2,80.8,129,81.5,129.8,82.2L129.8,82.2z M129.6,82.4c-0.8-0.7-1.6-1.4-2.4-2c-0.8-0.6-1.6-1.3-2.6-1.7l0,0l0,0
					c-0.7-0.4-1.4-0.9-2.2-1.2c-0.4-0.2-0.8-0.3-1.1-0.4c-0.4-0.1-0.8,0-1.1,0.2c-0.1,0-0.2,0-0.2,0l-4-4.4
					c-1.3-1.5-2.9-2.6-4.5-3.8c-0.8-0.6-1.6-1.1-2.5-1.6c-0.8-0.6-1.6-1.2-2.4-1.8c-1.5-1.3-3-2.5-4.5-3.8h0.3l-1.3,1.5v-0.3
					c1.6,1.4,3.3,2.9,5,4.2c0.8,0.7,1.7,1.4,2.6,1.9c0.9,0.6,1.8,1.2,2.7,1.8c0.9,0.7,1.8,1.3,2.6,2.1c0.8,0.8,1.5,1.6,2.2,2.4
					s1.4,1.6,2.2,2.4c0.4,0.4,0.7,0.9,1.2,1.1s1,0.1,1.4-0.2h0.1c0.5,0.2,1,0.4,1.4,0.7c0.5,0.2,0.9,0.5,1.3,0.8l0,0l0.2,0.1l0,0
					c0.8,0.3,1.4,0.9,2,1.3c0.6,0.5,1.2,1,1.8,1.5c1.2,1.1,2.3,2.1,3.5,3.3c1.1,1.1,2.3,2.2,3.3,3.4c1.1,1.2,1.8,2.6,2.6,4l2.5,4
					c0.8,1.4,1.9,2.5,3,3.7c1.1,1.1,2.3,2.2,3.5,3.2c1.3,1,2.1,2.5,2.6,4l-0.3-0.2l1.9-0.5l-0.2,0.3c-0.4-1.3-1-2.6-1.9-3.6
					c-0.4-0.5-1-1-1.5-1.4l-1.6-1.4c-1-1-2-1.9-3-3c-0.9-1.1-1.6-2.3-2.4-3.5c-0.7-1.2-1.5-2.4-2.2-3.6c-0.7-1.2-1.4-2.4-2.4-3.4
					C133.6,86.3,131.6,84.3,129.6,82.4L129.6,82.4z"/>
			</g>
			<g>
				<path class="st2" d="M127.6,70.6c4.6-5,10.9-9.3,16.1-4.7c5.9,5.3,5.4,18,2.2,21.9c-6.4,7.7-10.3,3-15.4-1.7
					C125.3,81.4,124.2,74.3,127.6,70.6z"/>
				<path d="M127.3,70.4c1.1-1.3,2.2-2.4,3.5-3.5c1.3-1,2.7-2,4.2-2.7s3.3-1,5.1-0.7c1.7,0.3,3.3,1.4,4.4,2.6c1.1,1.3,2,2.7,2.6,4.3
					c0.6,1.6,1,3.2,1.2,4.8c0.4,3.3,0.2,6.6-0.8,9.8c-0.3,0.8-0.6,1.6-1.1,2.2l-0.4,0.5l-0.4,0.5c-0.3,0.3-0.5,0.6-0.8,0.9
					c-1.2,1.2-2.5,2.3-4.2,2.7c-1.7,0.4-3.5-0.1-4.9-1s-2.7-2-3.9-3.1L130,86c-0.6-0.6-1.2-1.2-1.7-1.9c-1-1.3-1.8-2.8-2.4-4.4
					c-0.5-1.6-0.8-3.3-0.6-5C125.5,73.3,126.2,71.6,127.3,70.4L127.3,70.4z M127.8,70.8c-1,1.2-1.6,2.7-1.7,4.3
					c-0.1,1.6,0.1,3.2,0.6,4.6c0.5,1.5,1.3,2.9,2.3,4.1s2.2,2.3,3.4,3.4s2.4,2.2,3.7,3.1s2.9,1.4,4.4,1.1c1.5-0.4,2.9-1.3,4-2.4
					c0.3-0.3,0.6-0.6,0.8-0.9l0.4-0.4l0.3-0.5c0.4-0.7,0.7-1.4,1-2.2c1-3.1,1-6.4,0.6-9.6c-0.2-1.6-0.7-3.1-1.3-4.6s-1.4-2.8-2.5-4
					c-1.1-1.1-2.4-2-3.9-2.3s-3.1-0.1-4.5,0.5C132.5,66.3,130,68.5,127.8,70.8L127.8,70.8z"/>
			</g>
			<g>
				<path class="st3" d="M128.6,71.2c4.1-4.5,9.8-8.4,14.5-4.2c5.3,4.8,4.9,16.2,2,19.7c-5.8,6.9-9.2,2.7-13.9-1.5
					C126.6,81,125.6,74.6,128.6,71.2z"/>
				<path d="M128.5,71.1c2-2.2,4.2-4.2,7-5.4c1.4-0.6,2.9-0.9,4.4-0.6s2.8,1.2,3.8,2.3c2.1,2.2,3,5.2,3.4,8.1s0.2,6-0.7,8.8
					c-0.2,0.7-0.5,1.4-1,2l-0.3,0.5l-0.4,0.4c-0.2,0.3-0.5,0.6-0.7,0.8c-1,1-2.2,2-3.7,2.4s-3.1-0.1-4.3-0.9
					c-1.3-0.8-2.4-1.8-3.5-2.8s-2.2-1.9-3.1-3.1c-0.9-1.2-1.6-2.5-2.1-3.9s-0.7-2.9-0.5-4.4C126.9,73.7,127.5,72.3,128.5,71.1
					L128.5,71.1z M128.8,71.3c-0.9,1.1-1.5,2.5-1.6,3.9s0.1,2.9,0.6,4.3s1.2,2.6,2.1,3.8c0.9,1.1,2,2.1,3.1,3.1s2.2,2,3.4,2.8
					s2.6,1.3,4,0.9c1.4-0.3,2.6-1.2,3.6-2.2c0.3-0.3,0.5-0.5,0.7-0.8l0.4-0.4l0.3-0.4c0.4-0.6,0.7-1.3,0.9-2c0.9-2.8,1-5.8,0.6-8.7
					c-0.4-2.9-1.4-5.8-3.4-7.8c-1-1.1-2.2-1.8-3.6-2.1c-1.4-0.3-2.8,0-4.2,0.5C133,67.2,130.7,69.2,128.8,71.3L128.8,71.3z"/>
			</g>
			<g>
				<g>
					<path class="st2" d="M140.9,70l0.6-0.9c0.2-0.3,0.6-0.3,0.9,0l1.3,1.3c0.3,0.3,0.3,0.8,0.1,1.1l-0.6,0.9
						c-0.2,0.3-0.2,0.7,0.1,1c0.6,0.8,1.1,1.7,1.5,2.4c0.2,0.3,0.1,0.6,0,0.9l-1.5,2.3c-0.2,0.3-0.6,0.3-0.9,0l-1.1-1.1
						c-0.3-0.3-0.3-0.8-0.1-1.1l0,0c0.2-0.3,0.2-0.7,0-1s-0.5-0.7-0.9-1.1c-0.7-0.7-1.1-0.9-1.4-0.4c-0.3,0.5,0.2,1.3,0.6,2l0.6,1.1
						c1,1.7,1.9,3.7,0.3,6.2c-1.2,1.9-2.9,2.1-4.8,0.9c-0.3-0.2-0.6-0.1-0.8,0.1l-0.6,0.9c-0.2,0.3-0.6,0.3-0.9,0l-1.3-1.3
						c-0.3-0.3-0.3-0.8-0.1-1.1l0.6-0.9c0.2-0.3,0.2-0.7,0-1c-0.7-0.9-1.1-1.8-1.4-2.4c-0.1-0.3-0.1-0.6,0-0.8l1.4-2.2
						c0.2-0.3,0.6-0.3,0.9,0l1.1,1.1c0.3,0.3,0.3,0.8,0.1,1.1v0.1c-0.2,0.3-0.2,0.7,0,1s0.5,0.6,0.8,1c0.8,0.8,1.2,0.9,1.4,0.4
						c0.3-0.4-0.1-1-0.5-1.8l-0.6-1c-1-1.7-2.1-3.9-0.4-6.5c1.6-2.3,3.1-2.2,4.8-1.1C140.4,70.4,140.8,70.3,140.9,70z"/>
					<g>
						<path d="M140.7,69.9l0.3-0.5l0.2-0.3c0.1-0.1,0.1-0.2,0.2-0.3c0.2-0.2,0.6-0.3,0.9-0.2c0.1,0.1,0.3,0.1,0.4,0.2l0.2,0.2
							l0.9,0.8L144,70c0.1,0.1,0.2,0.2,0.2,0.3c0.1,0.3,0.2,0.5,0.1,0.8c0,0.1-0.1,0.3-0.2,0.4l-0.2,0.3l-0.3,0.5
							c-0.1,0.2-0.1,0.2-0.2,0.3c0,0.1,0,0.2,0.1,0.3c0.5,0.6,1,1.3,1.3,2c0.1,0.2,0.2,0.3,0.3,0.6c0.1,0.3,0.1,0.6,0,0.9
							c-0.1,0.4-0.3,0.5-0.4,0.6l-0.3,0.5l-0.7,1c-0.1,0.2-0.2,0.3-0.4,0.5c-0.2,0.3-0.7,0.4-1,0.3c-0.2,0-0.3-0.1-0.5-0.2
							c-0.1-0.1-0.2-0.2-0.2-0.2l-0.4-0.4l-0.4-0.4l-0.1-0.1c0,0-0.1-0.1-0.1-0.2c-0.1-0.1-0.2-0.3-0.2-0.4c-0.1-0.3-0.1-0.6,0-0.9
							c0-0.1,0.1-0.2,0.1-0.2l0,0v-0.1c0-0.1,0-0.2-0.1-0.3l-0.3-0.4c-0.2-0.3-0.4-0.6-0.7-0.9c-0.1-0.1-0.3-0.2-0.3-0.3
							c-0.1,0,0.1-0.1,0,0s-0.1,0.1-0.1,0.2s0.1,0.3,0.1,0.4c0.1,0.3,0.3,0.7,0.5,1c0.7,1.4,1.7,2.8,1.8,4.6c0,0.9-0.2,1.7-0.6,2.5
							c-0.4,0.7-0.9,1.4-1.6,1.9c-0.7,0.5-1.7,0.6-2.5,0.3c-0.4-0.1-0.8-0.3-1.2-0.5l-0.3-0.2c-0.1,0-0.1,0-0.2-0.1
							c-0.1,0-0.2,0-0.3,0.2c-0.2,0.3-0.4,0.6-0.7,1c-0.2,0.2-0.6,0.3-0.8,0.2c-0.1,0-0.3-0.1-0.3-0.2l-0.2-0.2l-0.8-0.9l-0.2-0.2
							c-0.1-0.1-0.2-0.2-0.2-0.3c-0.1-0.2-0.2-0.5-0.1-0.7c0.3-1,1.1-1.4,0.7-1.9c-0.4-0.6-0.9-1.3-1.3-2c-0.1-0.2-0.2-0.3-0.3-0.6
							c-0.1-0.3-0.1-0.5,0-0.8s0.2-0.4,0.3-0.6l0.3-0.5l0.6-1c0.1-0.2,0.2-0.3,0.5-0.6c0.3-0.2,0.7-0.2,1,0s0.4,0.3,0.5,0.5l0.4,0.4
							l0.4,0.4c0.2,0.2,0.3,0.5,0.4,0.8c0,0.3,0,0.6-0.2,0.9c-0.1,0.1-0.1,0.2-0.1,0.3c0,0.1,0,0.2,0.1,0.3l0.4,0.4
							c0.2,0.3,0.5,0.6,0.8,0.8c0.1,0.1,0.3,0.2,0.3,0.2l0,0c0,0,0,0,0-0.1c0.1,0,0-0.3-0.2-0.6c-0.2-0.3-0.4-0.7-0.6-1
							c-0.8-1.3-1.8-2.9-1.7-4.6c0-0.9,0.3-1.7,0.7-2.5c0.4-0.7,0.9-1.4,1.6-2c0.7-0.6,1.7-0.8,2.6-0.4c0.4,0.1,0.8,0.3,1.1,0.6
							l0.3,0.2l0.1,0.1C140.5,70,140.6,69.9,140.7,69.9L140.7,69.9z M141.2,70.2c-0.1,0.2-0.5,0.4-0.8,0.4c-0.2,0-0.3-0.1-0.4-0.2
							l-0.2-0.2c-0.3-0.2-0.7-0.4-1-0.5c-0.7-0.2-1.4,0-1.9,0.4c-1.1,0.9-1.9,2.4-1.9,3.8c0,1.5,0.8,2.8,1.7,4.1
							c0.2,0.3,0.4,0.7,0.6,1c0.1,0.2,0.2,0.4,0.3,0.7c0.1,0.2,0.1,0.6-0.1,0.9c-0.1,0.1-0.2,0.3-0.4,0.4s-0.4,0.1-0.6,0.1
							c-0.3-0.1-0.5-0.2-0.7-0.4c-0.4-0.3-0.6-0.6-0.9-0.9l-0.4-0.5c-0.1-0.2-0.3-0.5-0.3-0.8s0.1-0.6,0.2-0.8
							c0-0.1,0.1-0.2,0.1-0.3c0-0.1-0.1-0.2-0.1-0.3l-0.4-0.4l-0.4-0.4c-0.1-0.1-0.3-0.3-0.3-0.3c-0.2-0.1-0.2-0.1-0.4,0.4l-0.7,1
							l-0.3,0.5c-0.1,0.1-0.3,0.4-0.3,0.4c0,0.1,0,0.3,0,0.4s0.1,0.3,0.2,0.5c0.3,0.7,0.7,1.4,1.2,2c0.1,0.2,0.2,0.5,0.2,0.7
							c0,0.3-0.2,0.5-0.3,0.7l-0.3,0.5l-0.2,0.2c0,0.1-0.1,0.1-0.1,0.2s0,0.3,0.1,0.4c0,0.1,0.1,0.1,0.1,0.2l0.2,0.2l0.8,0.9
							l0.2,0.2l0.1,0.1c0.1,0,0.2,0,0.3-0.1c0.2-0.2,0.4-0.6,0.6-0.9c0.1-0.2,0.4-0.4,0.7-0.4c0.1,0,0.3,0.1,0.4,0.1l0.3,0.2
							c0.3,0.2,0.7,0.3,1,0.4c0.7,0.2,1.5,0.1,2.1-0.3s1.1-1,1.4-1.7c0.3-0.7,0.5-1.4,0.5-2.1c-0.1-1.5-1-2.8-1.8-4.2
							c-0.2-0.3-0.4-0.7-0.6-1.1c-0.1-0.2-0.2-0.4-0.2-0.7c-0.1-0.3,0.1-0.7,0.3-0.9c0.1-0.1,0.2-0.3,0.5-0.3c0.2-0.1,0.4,0,0.6,0
							c0.3,0.1,0.5,0.3,0.6,0.4c0.3,0.3,0.6,0.6,0.8,0.9l0.4,0.5c0.2,0.2,0.3,0.5,0.3,0.8c0,0.2,0,0.3-0.1,0.5
							c0,0.1-0.1,0.2-0.1,0.2l0,0c0,0.1,0,0.2,0,0.3c0,0,0,0.1,0.1,0.1c0,0,0,0,0,0.1l0.1,0.1l0.4,0.4l0.4,0.4l0.2,0.2
							c0,0,0,0,0.1,0l0,0l0.3-0.4l0.7-1l0.3-0.5c0.1-0.2,0.3-0.4,0.2-0.4c0-0.1,0-0.2,0-0.3c0-0.1-0.2-0.3-0.2-0.5
							c-0.4-0.7-0.8-1.3-1.3-2c-0.2-0.3-0.2-0.5-0.2-0.8s0.2-0.6,0.3-0.7l0.3-0.5l0.2-0.2c0,0,0-0.1,0.1-0.1c0-0.1,0-0.2,0-0.3
							c0-0.1,0-0.1-0.1-0.1l-0.2-0.2l-0.8-0.9l-0.2-0.2l-0.1-0.1c-0.1,0-0.2,0-0.2,0s-0.1,0.1-0.1,0.2l-0.2,0.2L141.2,70.2
							L141.2,70.2z"/>
					</g>
				</g>
			</g>
			<g>
				<path d="M151.9,96.6l-0.5-0.7l-0.3,0.4l0.4,1c-0.2,0.3-0.4,0.6-0.7,0.9l-1.5,1.9l-0.8,1v0.2l1.7,1.5l0.3-0.5l-0.5-0.5l1.7-2.2
					c0.2-0.3,0.5-0.6,0.7-0.9l0.7,0.6l0.3-0.4l-1-1.4L151.9,96.6L151.9,96.6z"/>
				<path d="M146.6,94c1.4-1.5,2.6-1.4,3.4-0.4c0.7,0.9,0.8,2.4-0.6,4c-1.4,1.5-2.6,1.4-3.4,0.5C145.3,97,145.3,95.5,146.6,94z
					 M149.7,93.9c-0.2-0.3-0.7-0.2-2.1,1.3c-1.3,1.5-1.5,2.1-1.2,2.4s0.7,0.1,2-1.3C149.8,94.7,149.9,94.2,149.7,93.9z"/>
				<path d="M144,90.5c1.4-1.5,2.6-1.5,3.2-0.8c0.6,0.7,0.5,2.1-0.9,3.6c-1.4,1.5-2.6,1.6-3.2,0.8C142.6,93.3,142.6,92,144,90.5z
					 M146.9,90c-0.2-0.2-0.7-0.1-2,1.4c-1.4,1.5-1.6,2-1.3,2.2c0.2,0.2,0.7,0,2-1.4C146.9,90.8,147.1,90.3,146.9,90z"/>
			</g>
			<g>
				<path d="M120.3,62.9l-0.7-0.6l-0.3,0.3l0.5,0.8c-0.3,0.3-0.5,0.6-0.8,0.9l-1.7,1.9l-0.9,0.9v0.2l2.1,1.2l0.4-0.4l-0.6-0.4
					l1.9-2.1c0.2-0.3,0.5-0.6,0.8-0.8l0.9,0.5l0.3-0.3l-1.3-1.2L120.3,62.9L120.3,62.9z"/>
				<path d="M114,61c1.4-1.5,2.8-1.5,3.6-0.7c0.9,0.8,1,2.2-0.3,3.7c-1.4,1.5-2.7,1.5-3.6,0.7C112.8,63.9,112.7,62.5,114,61z
					 M117.3,60.7c-0.3-0.3-0.8-0.1-2.1,1.4s-1.4,2-1.2,2.3c0.3,0.3,0.8,0.1,2.1-1.4C117.5,61.5,117.6,60.9,117.3,60.7z"/>
				<path d="M110.2,57.6c1.4-1.5,2.8-1.5,3.6-0.7c0.9,0.8,1,2.2-0.3,3.7c-1.4,1.5-2.7,1.5-3.6,0.7C109,60.5,108.9,59.1,110.2,57.6z
					 M113.5,57.3c-0.3-0.3-0.8-0.1-2.1,1.4s-1.4,2-1.2,2.3c0.3,0.3,0.8,0.1,2.1-1.4C113.7,58,113.8,57.5,113.5,57.3z"/>
			</g>
			<g>
				<path d="M120.5,80c-0.2-0.9-0.3-1.8-0.3-2.8c0-0.5,0.1-0.9,0.2-1.4c0.1-0.5,0.3-1,0.7-1.4c1.2-1.3,2.4-2.7,3.3-4.3l1.3-2.4
					c0.4-0.8,0.9-1.6,1.4-2.3c0.9-1.6,2-3.1,3.1-4.5v0.2c0-0.2,0-0.4,0.1-0.7c0.1-0.2,0.2-0.4,0.4-0.5c0.3-0.3,0.8-0.4,1.1-0.3v0.1
					c-0.4,0.1-0.7,0.2-0.8,0.5c-0.1,0.1-0.1,0.3-0.2,0.4c0,0.1,0,0.3,0,0.4v0.1l-0.1,0.1c-0.8,1.6-1.7,3.2-2.7,4.7
					c-0.5,0.7-1,1.5-1.5,2.2l-1.7,2.2c-0.5,0.7-1,1.5-1.5,2.3c-0.4,0.8-0.8,1.6-1.4,2.4c-0.4,0.6-0.7,1.5-0.8,2.3
					C120.8,78.2,120.7,79,120.5,80L120.5,80z"/>
			</g>
		</g>
	</g>
</g>
</svg>
